<?xml version="1.0" encoding="UTF-8"?>
<svg xmlns="http://www.w3.org/2000/svg" xmlns:xlink="http://www.w3.org/1999/xlink" width="50px" height="50px" viewBox="0 0 50 50" version="1.1">
<g id="surface1">
<path style=" stroke:none;fill-rule:nonzero;fill:rgb(16.470588%,18.039216%,28.627451%);fill-opacity:1;" d="M 0.0507812 17.75 C 0.0507812 11.832031 0.0507812 5.941406 0.0507812 0.0507812 C 16.714844 0.0507812 33.382812 0.0507812 50.050781 0.0507812 C 50.050781 16.714844 50.050781 33.382812 50.050781 50.050781 C 33.382812 50.050781 16.714844 50.050781 0.0507812 50.050781 C 0.0507812 39.292969 0.0507812 28.535156 0.0507812 17.75 M 6.773438 27.398438 C 6.875 28.527344 6.972656 29.65625 7.070312 30.78125 C 7.199219 32.199219 7.328125 33.617188 7.457031 35.035156 C 7.582031 36.414062 7.703125 37.789062 7.828125 39.164062 C 7.949219 40.550781 8.085938 41.933594 8.191406 43.320312 C 8.210938 43.597656 8.292969 43.722656 8.570312 43.796875 C 11.667969 44.644531 14.761719 45.507812 17.859375 46.367188 C 20.167969 47.007812 22.476562 47.652344 24.789062 48.289062 C 24.910156 48.324219 25.054688 48.339844 25.175781 48.308594 C 27.613281 47.636719 30.050781 46.960938 32.488281 46.285156 C 35.511719 45.445312 38.535156 44.605469 41.5625 43.773438 C 41.746094 43.722656 41.867188 43.65625 41.882812 43.433594 C 41.996094 42.082031 42.121094 40.730469 42.242188 39.378906 C 42.351562 38.132812 42.453125 36.890625 42.566406 35.644531 C 42.703125 34.105469 42.851562 32.5625 42.992188 31.019531 C 43.121094 29.578125 43.242188 28.132812 43.367188 26.691406 C 43.492188 25.316406 43.621094 23.9375 43.742188 22.5625 C 43.851562 21.351562 43.953125 20.140625 44.058594 18.929688 C 44.203125 17.3125 44.351562 15.695312 44.496094 14.078125 C 44.625 12.660156 44.75 11.242188 44.878906 9.824219 C 45.003906 8.425781 45.125 7.023438 45.25 5.621094 C 45.351562 4.460938 45.449219 3.296875 45.558594 2.136719 C 45.597656 1.75 45.609375 1.75 45.230469 1.75 C 32.5625 1.75 19.898438 1.75 7.230469 1.75 C 6.40625 1.75 5.582031 1.757812 4.757812 1.746094 C 4.554688 1.742188 4.492188 1.804688 4.507812 2.003906 C 4.648438 3.539062 4.78125 5.070312 4.921875 6.605469 C 5.078125 8.355469 5.242188 10.105469 5.398438 11.855469 C 5.554688 13.636719 5.703125 15.421875 5.863281 17.203125 C 6.023438 18.980469 6.191406 20.753906 6.351562 22.527344 C 6.496094 24.136719 6.628906 25.746094 6.773438 27.398438 Z M 6.773438 27.398438 "/>
<path style=" stroke:none;fill-rule:nonzero;fill:rgb(3.529412%,45.490196%,73.72549%);fill-opacity:1;" d="M 6.773438 27.375 C 6.628906 25.746094 6.496094 24.136719 6.351562 22.527344 C 6.191406 20.753906 6.023438 18.980469 5.863281 17.203125 C 5.703125 15.421875 5.554688 13.636719 5.398438 11.855469 C 5.242188 10.105469 5.078125 8.355469 4.921875 6.605469 C 4.78125 5.070312 4.648438 3.539062 4.507812 2.003906 C 4.492188 1.804688 4.554688 1.742188 4.757812 1.746094 C 5.582031 1.757812 6.40625 1.75 7.230469 1.75 C 19.898438 1.75 32.5625 1.75 45.230469 1.75 C 45.609375 1.75 45.597656 1.75 45.558594 2.136719 C 45.449219 3.296875 45.351562 4.460938 45.25 5.621094 C 45.125 7.023438 45.003906 8.425781 44.878906 9.824219 C 44.75 11.242188 44.625 12.660156 44.496094 14.078125 C 44.351562 15.695312 44.203125 17.3125 44.058594 18.929688 C 43.953125 20.140625 43.851562 21.351562 43.742188 22.5625 C 43.621094 23.9375 43.492188 25.316406 43.367188 26.691406 C 43.242188 28.132812 43.121094 29.578125 42.992188 31.019531 C 42.851562 32.5625 42.703125 34.105469 42.566406 35.644531 C 42.453125 36.890625 42.351562 38.132812 42.242188 39.378906 C 42.121094 40.730469 41.996094 42.082031 41.882812 43.433594 C 41.867188 43.65625 41.746094 43.722656 41.5625 43.773438 C 38.535156 44.605469 35.511719 45.445312 32.488281 46.285156 C 30.050781 46.960938 27.613281 47.636719 25.175781 48.308594 C 25.054688 48.339844 24.910156 48.324219 24.789062 48.289062 C 22.476562 47.652344 20.167969 47.007812 17.859375 46.367188 C 14.761719 45.507812 11.667969 44.644531 8.570312 43.796875 C 8.292969 43.722656 8.210938 43.597656 8.191406 43.320312 C 8.085938 41.933594 7.949219 40.550781 7.828125 39.164062 C 7.703125 37.789062 7.582031 36.414062 7.457031 35.035156 C 7.328125 33.617188 7.199219 32.199219 7.070312 30.78125 C 6.972656 29.65625 6.875 28.527344 6.773438 27.375 M 25.007812 15.535156 C 21.933594 16.851562 18.855469 18.167969 15.78125 19.484375 C 14.886719 19.867188 13.996094 20.257812 13.070312 20.667969 C 13.066406 20.703125 13.058594 20.734375 13.0625 20.769531 C 13.164062 21.914062 13.261719 23.058594 13.363281 24.203125 C 13.410156 24.722656 13.457031 25.242188 13.507812 25.792969 C 13.628906 25.792969 13.734375 25.792969 13.84375 25.792969 C 17.476562 25.792969 21.109375 25.792969 24.742188 25.792969 C 24.855469 25.792969 24.972656 25.800781 25.089844 25.851562 C 25.089844 28.488281 25.09375 31.121094 25.089844 33.757812 C 25.089844 33.863281 25.03125 33.972656 24.960938 34.070312 C 23.128906 33.578125 21.296875 33.089844 19.46875 32.589844 C 19.394531 32.570312 19.304688 32.457031 19.292969 32.378906 C 19.203125 31.519531 19.128906 30.65625 19.050781 29.792969 C 19.007812 29.351562 18.964844 28.90625 18.925781 28.46875 C 17.1875 28.46875 15.484375 28.46875 13.765625 28.46875 C 13.832031 29.246094 13.894531 30.007812 13.964844 30.769531 C 14.125 32.59375 14.292969 34.417969 14.449219 36.242188 C 14.464844 36.441406 14.519531 36.546875 14.730469 36.601562 C 16.535156 37.09375 18.335938 37.59375 20.136719 38.09375 C 21.789062 38.546875 23.441406 39.003906 25.089844 39.503906 C 25.09375 41.152344 25.09375 42.800781 25.09375 44.453125 C 25.09375 44.746094 25.109375 44.757812 25.390625 44.691406 C 25.429688 44.683594 25.46875 44.671875 25.511719 44.660156 C 29.816406 43.476562 34.117188 42.289062 38.425781 41.109375 C 38.664062 41.042969 38.679688 40.878906 38.695312 40.695312 C 38.800781 39.484375 38.902344 38.273438 39.007812 37.066406 C 39.148438 35.472656 39.300781 33.882812 39.441406 32.292969 C 39.601562 30.519531 39.75 28.746094 39.90625 26.972656 C 40.066406 25.199219 40.234375 23.425781 40.390625 21.652344 C 40.535156 20.027344 40.664062 18.402344 40.808594 16.777344 C 40.980469 14.835938 41.167969 12.898438 41.339844 10.960938 C 41.5 9.160156 41.652344 7.363281 41.808594 5.5625 C 41.835938 5.25 41.835938 5.246094 41.515625 5.246094 C 36.160156 5.246094 30.800781 5.246094 25.445312 5.246094 C 25.097656 5.246094 25.09375 5.253906 25.09375 5.59375 C 25.09375 7.0625 25.09375 8.527344 25.050781 10.003906 C 24.972656 10.003906 24.898438 10.007812 24.824219 10.007812 C 20.699219 10.007812 16.578125 10.007812 12.453125 10.007812 C 12.359375 10.007812 12.261719 10.007812 12.144531 10.007812 C 12.296875 11.742188 12.449219 13.441406 12.601562 15.152344 C 12.726562 15.152344 12.828125 15.152344 12.925781 15.152344 C 16.890625 15.152344 20.855469 15.152344 24.820312 15.152344 C 24.910156 15.152344 25.003906 15.15625 25.09375 15.195312 C 25.097656 15.289062 25.105469 15.382812 25.09375 15.488281 C 25.078125 15.5 25.0625 15.511719 25.007812 15.535156 Z M 25.007812 15.535156 "/>
<path style=" stroke:none;fill-rule:nonzero;fill:rgb(15.294118%,66.666667%,88.627451%);fill-opacity:1;" d="M 25.09375 9.992188 C 25.09375 8.527344 25.09375 7.0625 25.09375 5.59375 C 25.09375 5.253906 25.097656 5.246094 25.445312 5.246094 C 30.800781 5.246094 36.160156 5.246094 41.515625 5.246094 C 41.835938 5.246094 41.835938 5.25 41.808594 5.5625 C 41.652344 7.363281 41.5 9.160156 41.339844 10.960938 C 41.167969 12.898438 40.980469 14.835938 40.808594 16.777344 C 40.664062 18.402344 40.535156 20.027344 40.390625 21.652344 C 40.234375 23.425781 40.066406 25.199219 39.90625 26.972656 C 39.75 28.746094 39.601562 30.519531 39.441406 32.292969 C 39.300781 33.882812 39.148438 35.472656 39.007812 37.066406 C 38.902344 38.273438 38.800781 39.484375 38.695312 40.695312 C 38.679688 40.878906 38.664062 41.042969 38.425781 41.109375 C 34.117188 42.289062 29.816406 43.476562 25.511719 44.660156 C 25.46875 44.671875 25.429688 44.683594 25.390625 44.691406 C 25.109375 44.757812 25.09375 44.746094 25.09375 44.453125 C 25.09375 42.800781 25.09375 41.152344 25.09375 39.472656 C 25.097656 39.441406 25.105469 39.429688 25.125 39.425781 C 25.96875 39.195312 26.796875 38.96875 27.621094 38.738281 C 30.1875 38.027344 32.75 37.3125 35.320312 36.605469 C 35.546875 36.546875 35.613281 36.441406 35.632812 36.222656 C 35.8125 34.054688 36.007812 31.890625 36.195312 29.726562 C 36.425781 27.101562 36.65625 24.480469 36.882812 21.859375 C 36.917969 21.464844 36.949219 21.070312 36.984375 20.648438 C 36.847656 20.648438 36.738281 20.648438 36.632812 20.648438 C 32.808594 20.644531 28.984375 20.644531 25.167969 20.632812 C 25.246094 20.582031 25.308594 20.542969 25.378906 20.515625 C 28.808594 18.992188 32.234375 17.46875 35.664062 15.941406 C 36.226562 15.695312 36.78125 15.433594 37.359375 15.171875 C 37.414062 15.050781 37.472656 14.9375 37.484375 14.820312 C 37.617188 13.261719 37.746094 11.703125 37.882812 10.128906 C 37.863281 10.082031 37.835938 10.046875 37.78125 10.011719 C 33.597656 10.007812 29.433594 10.007812 25.273438 10.007812 C 25.214844 10.007812 25.15625 10.015625 25.097656 10.011719 C 25.09375 10.007812 25.09375 9.992188 25.09375 9.992188 Z M 25.09375 9.992188 "/>
<path style=" stroke:none;fill-rule:nonzero;fill:rgb(90.588235%,90.980392%,90.980392%);fill-opacity:1;" d="M 25.105469 39.429688 C 25.105469 39.429688 25.097656 39.441406 25.09375 39.449219 C 23.441406 39.003906 21.789062 38.546875 20.136719 38.09375 C 18.335938 37.59375 16.535156 37.09375 14.730469 36.601562 C 14.519531 36.546875 14.464844 36.441406 14.449219 36.242188 C 14.292969 34.417969 14.125 32.59375 13.964844 30.769531 C 13.894531 30.007812 13.832031 29.246094 13.765625 28.46875 C 15.484375 28.46875 17.1875 28.46875 18.925781 28.46875 C 18.964844 28.90625 19.007812 29.351562 19.050781 29.792969 C 19.128906 30.65625 19.203125 31.519531 19.292969 32.378906 C 19.304688 32.457031 19.394531 32.570312 19.46875 32.589844 C 21.296875 33.089844 23.128906 33.578125 24.988281 34.082031 C 25.03125 34.09375 25.046875 34.101562 25.0625 34.125 C 25.078125 34.269531 25.097656 34.394531 25.097656 34.515625 C 25.101562 36.15625 25.101562 37.792969 25.105469 39.429688 Z M 25.105469 39.429688 "/>
<path style=" stroke:none;fill-rule:nonzero;fill:rgb(90.588235%,90.980392%,90.980392%);fill-opacity:1;" d="M 25.09375 15.160156 C 25.003906 15.15625 24.910156 15.152344 24.820312 15.152344 C 20.855469 15.152344 16.890625 15.152344 12.925781 15.152344 C 12.828125 15.152344 12.726562 15.152344 12.601562 15.152344 C 12.449219 13.441406 12.296875 11.742188 12.144531 10.007812 C 12.261719 10.007812 12.359375 10.007812 12.453125 10.007812 C 16.578125 10.007812 20.699219 10.007812 24.824219 10.007812 C 24.898438 10.007812 24.972656 10.003906 25.070312 10 C 25.09375 9.992188 25.09375 10.007812 25.097656 10.035156 C 25.097656 11.757812 25.097656 13.449219 25.097656 15.144531 C 25.09375 15.152344 25.09375 15.160156 25.09375 15.160156 Z M 25.09375 15.160156 "/>
<path style=" stroke:none;fill-rule:nonzero;fill:rgb(90.588235%,90.980392%,90.980392%);fill-opacity:1;" d="M 25.089844 25.804688 C 24.972656 25.800781 24.855469 25.792969 24.742188 25.792969 C 21.109375 25.792969 17.476562 25.792969 13.84375 25.792969 C 13.734375 25.792969 13.628906 25.792969 13.507812 25.792969 C 13.457031 25.242188 13.410156 24.722656 13.363281 24.203125 C 13.261719 23.058594 13.164062 21.914062 13.0625 20.769531 C 13.058594 20.734375 13.066406 20.703125 13.109375 20.660156 C 16.761719 20.648438 20.375 20.648438 23.992188 20.648438 C 24.359375 20.648438 24.722656 20.644531 25.097656 20.644531 C 25.101562 20.652344 25.109375 20.660156 25.109375 20.683594 C 25.101562 22.316406 25.097656 23.929688 25.101562 25.542969 C 25.101562 25.621094 25.128906 25.703125 25.128906 25.789062 C 25.109375 25.800781 25.097656 25.804688 25.089844 25.804688 Z M 25.089844 25.804688 "/>
<path style=" stroke:none;fill-rule:nonzero;fill:rgb(15.294118%,66.666667%,88.627451%);fill-opacity:1;" d="M 25.089844 25.828125 C 25.097656 25.804688 25.109375 25.800781 25.15625 25.792969 C 26.03125 25.792969 26.871094 25.792969 27.714844 25.792969 C 28.894531 25.789062 30.078125 25.785156 31.273438 25.789062 C 31.308594 25.792969 31.328125 25.796875 31.351562 25.820312 C 31.167969 28.015625 30.984375 30.183594 30.792969 32.355469 C 30.785156 32.425781 30.675781 32.523438 30.59375 32.546875 C 29.933594 32.742188 29.269531 32.917969 28.605469 33.105469 C 27.421875 33.4375 26.242188 33.773438 25.058594 34.105469 C 25.046875 34.101562 25.03125 34.09375 25.007812 34.085938 C 25.03125 33.972656 25.089844 33.863281 25.089844 33.757812 C 25.09375 31.121094 25.089844 28.488281 25.089844 25.828125 Z M 25.089844 25.828125 "/>
<path style=" stroke:none;fill-rule:nonzero;fill:rgb(90.588235%,90.980392%,90.980392%);fill-opacity:1;" d="M 37.339844 15.175781 C 36.78125 15.433594 36.226562 15.695312 35.664062 15.941406 C 32.234375 17.46875 28.808594 18.992188 25.378906 20.515625 C 25.308594 20.542969 25.246094 20.582031 25.15625 20.636719 C 25.128906 20.65625 25.121094 20.660156 25.109375 20.660156 C 25.109375 20.660156 25.101562 20.652344 25.09375 20.625 C 25.089844 19.046875 25.089844 17.496094 25.085938 15.945312 C 25.085938 15.804688 25.0625 15.664062 25.046875 15.527344 C 25.0625 15.511719 25.078125 15.5 25.121094 15.476562 C 25.378906 15.363281 25.605469 15.261719 25.859375 15.15625 C 29.613281 15.152344 33.339844 15.152344 37.066406 15.152344 C 37.160156 15.152344 37.25 15.167969 37.339844 15.175781 Z M 37.339844 15.175781 "/>
<path style=" stroke:none;fill-rule:nonzero;fill:rgb(70.588235%,70.588235%,70.588235%);fill-opacity:1;" d="M 25.027344 15.53125 C 25.0625 15.664062 25.085938 15.804688 25.085938 15.945312 C 25.089844 17.496094 25.089844 19.046875 25.089844 20.617188 C 24.722656 20.644531 24.359375 20.648438 23.992188 20.648438 C 20.375 20.648438 16.761719 20.648438 13.125 20.648438 C 13.996094 20.257812 14.886719 19.867188 15.78125 19.484375 C 18.855469 18.167969 21.933594 16.851562 25.027344 15.53125 Z M 25.027344 15.53125 "/>
<path style=" stroke:none;fill-rule:nonzero;fill:rgb(20.784314%,67.843137%,87.45098%);fill-opacity:1;" d="M 25.835938 15.15625 C 25.605469 15.261719 25.378906 15.363281 25.128906 15.472656 C 25.105469 15.382812 25.097656 15.289062 25.09375 15.179688 C 25.09375 15.160156 25.09375 15.152344 25.121094 15.148438 C 25.375 15.152344 25.605469 15.152344 25.835938 15.15625 Z M 25.835938 15.15625 "/>
<path style=" stroke:none;fill-rule:nonzero;fill:rgb(100%,100%,100%);fill-opacity:1;" d="M 25.109375 20.683594 C 25.121094 20.660156 25.128906 20.65625 25.148438 20.648438 C 28.984375 20.644531 32.808594 20.644531 36.632812 20.648438 C 36.738281 20.648438 36.847656 20.648438 36.984375 20.648438 C 36.949219 21.070312 36.917969 21.464844 36.882812 21.859375 C 36.65625 24.480469 36.425781 27.101562 36.195312 29.726562 C 36.007812 31.890625 35.8125 34.054688 35.632812 36.222656 C 35.613281 36.441406 35.546875 36.546875 35.320312 36.605469 C 32.75 37.3125 30.1875 38.027344 27.621094 38.738281 C 26.796875 38.96875 25.96875 39.195312 25.125 39.425781 C 25.101562 37.792969 25.101562 36.15625 25.097656 34.515625 C 25.097656 34.394531 25.078125 34.269531 25.0625 34.125 C 26.242188 33.773438 27.421875 33.4375 28.605469 33.105469 C 29.269531 32.917969 29.933594 32.742188 30.59375 32.546875 C 30.675781 32.523438 30.785156 32.425781 30.792969 32.355469 C 30.984375 30.183594 31.167969 28.015625 31.34375 25.8125 C 31.308594 25.78125 31.285156 25.78125 31.257812 25.78125 C 30.078125 25.785156 28.894531 25.789062 27.714844 25.792969 C 26.871094 25.792969 26.03125 25.792969 25.167969 25.789062 C 25.128906 25.703125 25.101562 25.621094 25.101562 25.542969 C 25.097656 23.929688 25.101562 22.316406 25.109375 20.683594 Z M 25.109375 20.683594 "/>
<path style=" stroke:none;fill-rule:nonzero;fill:rgb(100%,100%,100%);fill-opacity:1;" d="M 25.859375 15.15625 C 25.605469 15.152344 25.375 15.152344 25.121094 15.144531 C 25.097656 13.449219 25.097656 11.757812 25.097656 10.042969 C 25.15625 10.015625 25.214844 10.007812 25.273438 10.007812 C 29.433594 10.007812 33.597656 10.007812 37.789062 10.023438 C 37.835938 10.074219 37.859375 10.105469 37.878906 10.140625 C 37.746094 11.703125 37.617188 13.261719 37.484375 14.820312 C 37.472656 14.9375 37.414062 15.050781 37.359375 15.171875 C 37.25 15.167969 37.160156 15.152344 37.066406 15.152344 C 33.339844 15.152344 29.613281 15.152344 25.859375 15.15625 Z M 25.859375 15.15625 "/>
<path style=" stroke:none;fill-rule:nonzero;fill:rgb(90.588235%,90.980392%,90.980392%);fill-opacity:1;" d="M 37.882812 10.128906 C 37.859375 10.105469 37.835938 10.074219 37.8125 10.027344 C 37.835938 10.046875 37.863281 10.082031 37.882812 10.128906 Z M 37.882812 10.128906 "/>
<path style=" stroke:none;fill-rule:nonzero;fill:rgb(90.588235%,90.980392%,90.980392%);fill-opacity:1;" d="M 31.273438 25.789062 C 31.285156 25.78125 31.308594 25.78125 31.339844 25.792969 C 31.328125 25.796875 31.308594 25.792969 31.273438 25.789062 Z M 31.273438 25.789062 "/>
</g>
</svg>
