<svg version="1.1" id="Layer_1" xmlns="http://www.w3.org/2000/svg" xmlns:xlink="http://www.w3.org/1999/xlink" x="0px" y="0px"
	 width="100%" viewBox="0 0 1000 1000" enable-background="new 0 0 1000 1000" xml:space="preserve">
<path fill="#2A2E49" opacity="1.000000" stroke="none" 
	d="
M1.000000,355.000000 
	C1.000000,236.666687 1.000000,118.833359 1.000000,1.000032 
	C334.333282,1.000021 667.666565,1.000021 1000.999878,1.000010 
	C1000.999878,334.333221 1000.999878,667.666443 1000.999939,1000.999756 
	C667.666809,1000.999878 334.333588,1000.999878 1.000200,1000.999939 
	C1.000000,785.833313 1.000000,570.666687 1.000000,355.000000 
M135.498367,547.989746 
	C137.477020,570.545593 139.425980,593.104004 141.441788,615.656555 
	C143.976349,644.012878 146.576172,672.363281 149.128311,700.718018 
	C151.606323,728.249146 154.055664,755.782898 156.524857,783.314758 
	C159.009018,811.013184 161.697174,838.695679 163.827286,866.421204 
	C164.255249,871.991760 165.870621,874.421997 171.398392,875.934692 
	C233.367081,892.892639 295.258820,910.132019 357.164795,927.318970 
	C403.355988,940.143005 449.530823,953.026062 495.742950,965.774109 
	C498.190613,966.449280 501.106018,966.797180 503.487061,966.143738 
	C552.280579,952.752686 601.025879,939.186340 649.784851,925.669556 
	C710.254211,908.906433 770.720947,892.133667 831.213867,875.455811 
	C834.949768,874.425842 837.319397,873.098877 837.685852,868.681946 
	C839.929932,841.633606 842.428223,814.606323 844.807800,787.569092 
	C846.997314,762.690674 849.084473,737.803223 851.324036,712.929382 
	C854.100952,682.086975 857.045837,651.259644 859.811218,620.416199 
	C862.398438,591.559937 864.804871,562.687561 867.366882,533.828979 
	C869.811035,506.298645 872.386414,478.779968 874.842285,451.250641 
	C877.002380,427.037109 879.041016,402.812805 881.198059,378.599030 
	C884.078735,346.262329 887.028687,313.931793 889.936279,281.597473 
	C892.486389,253.238632 895.034424,224.879593 897.555237,196.518143 
	C900.046509,168.488541 902.498718,140.455475 904.974915,112.424522 
	C907.026428,89.200119 908.991516,65.967422 911.198975,42.757816 
	C911.938293,34.985229 912.226196,35.011250 904.589539,35.011223 
	C651.266602,35.010246 397.943604,35.009663 144.620651,35.008556 
	C128.121338,35.008484 111.620583,35.121120 95.123711,34.919071 
	C91.105515,34.869858 89.826904,36.128086 90.187927,40.071877 
	C92.995941,70.746300 95.662857,101.433594 98.428940,132.111908 
	C101.583885,167.103180 104.858643,202.083755 107.966103,237.079208 
	C111.132652,272.739990 114.086296,308.419708 117.267525,344.079132 
	C120.433777,379.570648 123.832588,415.041443 127.007652,450.532196 
	C129.885910,482.705353 132.600128,514.893188 135.498367,547.989746 
z"/>
<path fill="#0974BC" opacity="1.000000" stroke="none" 
	d="
M135.442520,547.532166 
	C132.600128,514.893188 129.885910,482.705353 127.007652,450.532196 
	C123.832588,415.041443 120.433777,379.570648 117.267525,344.079132 
	C114.086296,308.419708 111.132652,272.739990 107.966103,237.079208 
	C104.858643,202.083755 101.583885,167.103180 98.428940,132.111908 
	C95.662857,101.433594 92.995941,70.746300 90.187927,40.071877 
	C89.826904,36.128086 91.105515,34.869858 95.123711,34.919071 
	C111.620583,35.121120 128.121338,35.008484 144.620651,35.008556 
	C397.943604,35.009663 651.266602,35.010246 904.589539,35.011223 
	C912.226196,35.011250 911.938293,34.985229 911.198975,42.757816 
	C908.991516,65.967422 907.026428,89.200119 904.974915,112.424522 
	C902.498718,140.455475 900.046509,168.488541 897.555237,196.518143 
	C895.034424,224.879593 892.486389,253.238632 889.936279,281.597473 
	C887.028687,313.931793 884.078735,346.262329 881.198059,378.599030 
	C879.041016,402.812805 877.002380,427.037109 874.842285,451.250641 
	C872.386414,478.779968 869.811035,506.298645 867.366882,533.828979 
	C864.804871,562.687561 862.398438,591.559937 859.811218,620.416199 
	C857.045837,651.259644 854.100952,682.086975 851.324036,712.929382 
	C849.084473,737.803223 846.997314,762.690674 844.807800,787.569092 
	C842.428223,814.606323 839.929932,841.633606 837.685852,868.681946 
	C837.319397,873.098877 834.949768,874.425842 831.213867,875.455811 
	C770.720947,892.133667 710.254211,908.906433 649.784851,925.669556 
	C601.025879,939.186340 552.280579,952.752686 503.487061,966.143738 
	C501.106018,966.797180 498.190613,966.449280 495.742950,965.774109 
	C449.530823,953.026062 403.355988,940.143005 357.164795,927.318970 
	C295.258820,910.132019 233.367081,892.892639 171.398392,875.934692 
	C165.870621,874.421997 164.255249,871.991760 163.827286,866.421204 
	C161.697174,838.695679 159.009018,811.013184 156.524857,783.314758 
	C154.055664,755.782898 151.606323,728.249146 149.128311,700.718018 
	C146.576172,672.363281 143.976349,644.012878 141.441788,615.656555 
	C139.425980,593.104004 137.477020,570.545593 135.442520,547.532166 
M500.194855,310.733307 
	C438.660065,337.038788 377.116211,363.323151 315.596130,389.662994 
	C297.705841,397.322662 279.883392,405.140717 261.404114,413.381836 
	C261.351379,414.040283 261.203369,414.707031 261.259644,415.356018 
	C263.245514,438.254211 265.237152,461.151947 267.258789,484.046997 
	C268.178894,494.467499 269.163422,504.882324 270.166962,515.825745 
	C272.588837,515.825745 274.717468,515.825745 276.846100,515.825745 
	C349.505219,515.826050 422.164337,515.823547 494.823456,515.839539 
	C497.147797,515.840027 499.472046,516.029602 501.819550,517.053101 
	C501.833618,569.744690 501.869720,622.436279 501.782684,675.127686 
	C501.779144,677.274963 500.615784,679.420288 499.184937,681.390808 
	C462.569061,671.576660 425.943085,661.799500 389.373871,651.814392 
	C387.892975,651.410034 386.054718,649.135498 385.890900,647.574036 
	C384.084869,630.356934 382.584045,613.107849 380.987518,595.868652 
	C380.165619,586.993958 379.317596,578.121704 378.492096,569.361816 
	C343.757874,569.361816 309.672852,569.361816 275.331451,569.361816 
	C276.656250,584.925232 277.908295,600.164734 279.258942,615.395569 
	C282.494049,651.876770 285.840240,688.348450 288.946716,724.840515 
	C289.289490,728.866699 290.391144,730.912048 294.574646,732.047363 
	C330.675934,741.844299 366.705200,751.906250 402.764374,761.858643 
	C435.779480,770.970825 468.805084,780.045105 501.829773,790.056030 
	C501.839386,823.048767 501.838898,856.041443 501.867920,889.034180 
	C501.873108,894.945862 502.216980,895.180115 507.790680,893.835022 
	C508.600372,893.639648 509.405792,893.425354 510.208954,893.204285 
	C596.295837,869.504700 682.372925,845.769226 768.493896,822.194092 
	C773.298828,820.878784 773.591370,817.615051 773.910767,813.920837 
	C776.003174,789.715393 778.012207,765.502502 780.169067,741.302856 
	C783.005432,709.478760 786.008118,677.669556 788.838074,645.844971 
	C791.992371,610.373169 794.973572,574.885925 798.139526,539.415222 
	C801.305359,503.945984 804.684265,468.495697 807.825684,433.024353 
	C810.703064,400.535248 813.288940,368.020325 816.183105,335.532806 
	C819.638306,296.748169 823.364319,257.987671 826.825439,219.203537 
	C830.035156,183.236557 833.045898,147.251846 836.155273,111.275887 
	C836.699646,104.977776 836.724670,104.943588 830.321045,104.943138 
	C723.178650,104.935677 616.036194,104.935822 508.893799,104.943108 
	C501.972412,104.943581 501.870758,105.045441 501.867889,111.888962 
	C501.855560,141.215561 501.863983,170.542160 500.979401,200.065140 
	C499.481140,200.099365 497.982849,200.163528 496.484589,200.163559 
	C414.021790,200.165436 331.558990,200.161926 249.096176,200.158997 
	C247.170715,200.158936 245.245255,200.158997 242.878235,200.158997 
	C245.959030,234.882294 248.968048,268.796478 252.004944,303.025024 
	C254.556503,303.025024 256.532196,303.025024 258.507874,303.025024 
	C337.805450,303.024261 417.103027,303.022186 496.400604,303.031006 
	C498.228882,303.031219 500.057159,303.154205 501.851196,303.908539 
	C501.972961,305.764526 502.094727,307.620514 501.904816,309.751068 
	C501.584717,310.006409 501.264618,310.261719 500.194855,310.733307 
z"/>
<path fill="#27AAE2" opacity="1.000000" stroke="none" 
	d="
M501.864838,199.868759 
	C501.863983,170.542160 501.855560,141.215561 501.867889,111.888962 
	C501.870758,105.045441 501.972412,104.943581 508.893799,104.943108 
	C616.036194,104.935822 723.178650,104.935677 830.321045,104.943138 
	C836.724670,104.943588 836.699646,104.977776 836.155273,111.275887 
	C833.045898,147.251846 830.035156,183.236557 826.825439,219.203537 
	C823.364319,257.987671 819.638306,296.748169 816.183105,335.532806 
	C813.288940,368.020325 810.703064,400.535248 807.825684,433.024353 
	C804.684265,468.495697 801.305359,503.945984 798.139526,539.415222 
	C794.973572,574.885925 791.992371,610.373169 788.838074,645.844971 
	C786.008118,677.669556 783.005432,709.478760 780.169067,741.302856 
	C778.012207,765.502502 776.003174,789.715393 773.910767,813.920837 
	C773.591370,817.615051 773.298828,820.878784 768.493896,822.194092 
	C682.372925,845.769226 596.295837,869.504700 510.208954,893.204285 
	C509.405792,893.425354 508.600372,893.639648 507.790680,893.835022 
	C502.216980,895.180115 501.873108,894.945862 501.867920,889.034180 
	C501.838898,856.041443 501.839386,823.048767 501.891846,789.459229 
	C501.953888,788.862427 502.072388,788.586548 502.481445,788.521973 
	C519.412231,783.905212 535.941772,779.381104 552.454224,774.795654 
	C603.752258,760.550476 655.024597,746.212097 706.371155,732.144470 
	C710.900513,730.903442 712.272400,728.841187 712.644348,724.419189 
	C716.287415,681.101074 720.147034,637.801208 723.933777,594.495178 
	C728.518311,542.065125 733.097290,489.634521 737.664673,437.202972 
	C738.353027,429.300690 738.964966,421.391724 739.656006,412.951965 
	C736.928345,412.951965 734.801819,412.952515 732.675354,412.951904 
	C656.181641,412.929443 579.687866,412.906891 503.394592,412.620667 
	C504.916290,411.662048 506.202545,410.888367 507.563782,410.283447 
	C576.137817,379.807495 644.726318,349.364044 713.290100,318.865021 
	C724.521484,313.869019 735.647156,308.635315 747.169922,303.428925 
	C748.256104,301.044678 749.457336,298.783325 749.661865,296.435150 
	C752.378601,265.242126 754.955566,234.036972 757.680420,202.541779 
	C757.238708,201.606522 756.683838,200.964294 755.656128,200.257309 
	C671.935364,200.181702 588.687378,200.169937 505.439423,200.169556 
	C504.279694,200.169540 503.119934,200.312393 501.932678,200.259277 
	C501.905121,200.130020 501.864838,199.868759 501.864838,199.868759 
z"/>
<path fill="#E7E8E8" opacity="1.000000" stroke="none" 
	d="
M502.072388,788.586548 
	C502.072388,788.586548 501.953888,788.862427 501.889954,788.999268 
	C468.805084,780.045105 435.779480,770.970825 402.764374,761.858643 
	C366.705200,751.906250 330.675934,741.844299 294.574646,732.047363 
	C290.391144,730.912048 289.289490,728.866699 288.946716,724.840515 
	C285.840240,688.348450 282.494049,651.876770 279.258942,615.395569 
	C277.908295,600.164734 276.656250,584.925232 275.331451,569.361816 
	C309.672852,569.361816 343.757874,569.361816 378.492096,569.361816 
	C379.317596,578.121704 380.165619,586.993958 380.987518,595.868652 
	C382.584045,613.107849 384.084869,630.356934 385.890900,647.574036 
	C386.054718,649.135498 387.892975,651.410034 389.373871,651.814392 
	C425.943085,661.799500 462.569061,671.576660 499.754333,681.618896 
	C500.621674,681.906372 500.905853,682.005432 501.288177,682.530579 
	C501.583191,685.393616 501.920227,687.869873 501.925964,690.346863 
	C502.001953,723.093384 502.031342,755.839966 502.072388,788.586548 
z"/>
<path fill="#E7E8E8" opacity="1.000000" stroke="none" 
	d="
M501.885437,303.219940 
	C500.057159,303.154205 498.228882,303.031219 496.400604,303.031006 
	C417.103027,303.022186 337.805450,303.024261 258.507874,303.025024 
	C256.532196,303.025024 254.556503,303.025024 252.004944,303.025024 
	C248.968048,268.796478 245.959030,234.882294 242.878235,200.158997 
	C245.245255,200.158997 247.170715,200.158936 249.096176,200.158997 
	C331.558990,200.161926 414.021790,200.165436 496.484589,200.163559 
	C497.982849,200.163528 499.481140,200.099365 501.422119,199.966949 
	C501.864838,199.868759 501.905121,200.130020 501.935425,200.703094 
	C501.967529,235.123505 501.969299,268.970856 501.940002,302.916565 
	C501.908905,303.014923 501.885437,303.219940 501.885437,303.219940 
z"/>
<path fill="#E7E8E8" opacity="1.000000" stroke="none" 
	d="
M501.796356,516.130981 
	C499.472046,516.029602 497.147797,515.840027 494.823456,515.839539 
	C422.164337,515.823547 349.505219,515.826050 276.846100,515.825745 
	C274.717468,515.825745 272.588837,515.825745 270.166962,515.825745 
	C269.163422,504.882324 268.178894,494.467499 267.258789,484.046997 
	C265.237152,461.151947 263.245514,438.254211 261.259644,415.356018 
	C261.203369,414.707031 261.351379,414.040283 262.176880,413.181519 
	C335.243469,412.978699 407.537262,412.980560 479.831085,412.966888 
	C487.159180,412.965485 494.487244,412.870544 501.918091,412.917694 
	C502.020844,413.016388 502.226440,413.213654 502.158081,413.659790 
	C502.047028,446.347412 501.990845,478.588898 502.001129,510.830383 
	C502.001648,512.449036 502.577454,514.067627 502.614136,515.799805 
	C502.160706,515.985901 501.978516,516.058411 501.796356,516.130981 
z"/>
<path fill="#27AAE2" opacity="1.000000" stroke="none" 
	d="
M501.807953,516.592041 
	C501.978516,516.058411 502.160706,515.985901 503.092346,515.860474 
	C520.650818,515.821594 537.459900,515.866638 554.268799,515.841858 
	C577.897461,515.807007 601.525940,515.720337 625.448975,515.745239 
	C626.151672,515.885193 626.559937,515.935730 627.002869,516.432617 
	C623.356445,560.283325 619.710754,603.690857 615.838501,647.078125 
	C615.711487,648.501587 613.493469,650.445251 611.888184,650.918579 
	C598.669250,654.816040 585.355896,658.391785 572.087769,662.124329 
	C548.444458,668.775696 524.812805,675.468567 501.176239,682.144104 
	C500.905853,682.005432 500.621674,681.906372 500.158264,681.706726 
	C500.615784,679.420288 501.779144,677.274963 501.782684,675.127686 
	C501.869720,622.436279 501.833618,569.744690 501.807953,516.592041 
z"/>
<path fill="#E7E8E8" opacity="1.000000" stroke="none" 
	d="
M746.821655,303.511475 
	C735.647156,308.635315 724.521484,313.869019 713.290100,318.865021 
	C644.726318,349.364044 576.137817,379.807495 507.563782,410.283447 
	C506.202545,410.888367 504.916290,411.662048 503.155701,412.711853 
	C502.553009,413.115723 502.389740,413.164703 502.226440,413.213654 
	C502.226440,413.213654 502.020844,413.016388 501.909821,412.464294 
	C501.796082,380.915619 501.815063,349.919006 501.753906,318.922485 
	C501.748352,316.120148 501.226532,313.318817 500.944519,310.517029 
	C501.264618,310.261719 501.584717,310.006409 502.440857,309.553955 
	C507.551392,307.286438 512.125793,305.216095 517.188599,303.105042 
	C592.239319,303.045532 666.801636,303.023163 741.364014,303.029022 
	C743.183228,303.029175 745.002441,303.343628 746.821655,303.511475 
z"/>
<path fill="#B4B4B4" opacity="1.000000" stroke="none" 
	d="
M500.569672,310.625183 
	C501.226532,313.318817 501.748352,316.120148 501.753906,318.922485 
	C501.815063,349.919006 501.796082,380.915619 501.807068,412.365601 
	C494.487244,412.870544 487.159180,412.965485 479.831085,412.966888 
	C407.537262,412.980560 335.243469,412.978699 262.489746,412.933716 
	C279.883392,405.140717 297.705841,397.322662 315.596130,389.662994 
	C377.116211,363.323151 438.660065,337.038788 500.569672,310.625183 
z"/>
<path fill="#35ADDF" opacity="1.000000" stroke="none" 
	d="
M516.700256,303.145752 
	C512.125793,305.216095 507.551392,307.286438 502.596680,309.416656 
	C502.094727,307.620514 501.972961,305.764526 501.868317,303.564240 
	C501.885437,303.219940 501.908905,303.014923 502.402405,302.981323 
	C507.497345,303.013763 512.098816,303.079742 516.700256,303.145752 
z"/>
<path fill="#FFFFFF" opacity="1.000000" stroke="none" 
	d="
M502.158081,413.659790 
	C502.389740,413.164703 502.553009,413.115723 502.955231,412.975525 
	C579.687866,412.906891 656.181641,412.929443 732.675354,412.951904 
	C734.801819,412.952515 736.928345,412.951965 739.656006,412.951965 
	C738.964966,421.391724 738.353027,429.300690 737.664673,437.202972 
	C733.097290,489.634521 728.518311,542.065125 723.933777,594.495178 
	C720.147034,637.801208 716.287415,681.101074 712.644348,724.419189 
	C712.272400,728.841187 710.900513,730.903442 706.371155,732.144470 
	C655.024597,746.212097 603.752258,760.550476 552.454224,774.795654 
	C535.941772,779.381104 519.412231,783.905212 502.481445,788.521973 
	C502.031342,755.839966 502.001953,723.093384 501.925964,690.346863 
	C501.920227,687.869873 501.583191,685.393616 501.288177,682.530579 
	C524.812805,675.468567 548.444458,668.775696 572.087769,662.124329 
	C585.355896,658.391785 598.669250,654.816040 611.888184,650.918579 
	C613.493469,650.445251 615.711487,648.501587 615.838501,647.078125 
	C619.710754,603.690857 623.356445,560.283325 626.869080,516.269531 
	C626.185303,515.658630 625.669922,515.657227 625.154541,515.655762 
	C601.525940,515.720337 577.897461,515.807007 554.268799,515.841858 
	C537.459900,515.866638 520.650818,515.821594 503.363617,515.746948 
	C502.577454,514.067627 502.001648,512.449036 502.001129,510.830383 
	C501.990845,478.588898 502.047028,446.347412 502.158081,413.659790 
z"/>
<path fill="#FFFFFF" opacity="1.000000" stroke="none" 
	d="
M517.188599,303.105042 
	C512.098816,303.079742 507.497345,303.013763 502.433472,302.882965 
	C501.969299,268.970856 501.967529,235.123505 501.962952,200.832367 
	C503.119934,200.312393 504.279694,200.169540 505.439423,200.169556 
	C588.687378,200.169937 671.935364,200.181702 755.750183,200.481140 
	C756.733826,201.458115 757.150574,202.146484 757.567383,202.834839 
	C754.955566,234.036972 752.378601,265.242126 749.661865,296.435150 
	C749.457336,298.783325 748.256104,301.044678 747.169922,303.428925 
	C745.002441,303.343628 743.183228,303.029175 741.364014,303.029022 
	C666.801636,303.023163 592.239319,303.045532 517.188599,303.105042 
z"/>
<path fill="#E7E8E8" opacity="1.000000" stroke="none" 
	d="
M757.680420,202.541779 
	C757.150574,202.146484 756.733826,201.458115 756.223022,200.545929 
	C756.683838,200.964294 757.238708,201.606522 757.680420,202.541779 
z"/>
<path fill="#E7E8E8" opacity="1.000000" stroke="none" 
	d="
M625.448975,515.745239 
	C625.669922,515.657227 626.185303,515.658630 626.834473,515.823120 
	C626.559937,515.935730 626.151672,515.885193 625.448975,515.745239 
z"/>
</svg>