<?xml version="1.0" encoding="UTF-8"?>
<svg xmlns="http://www.w3.org/2000/svg" xmlns:xlink="http://www.w3.org/1999/xlink" width="50px" height="50px" viewBox="0 0 50 50" version="1.1">
<g id="surface1">
<path style=" stroke:none;fill-rule:nonzero;fill:rgb(0%,0%,0%);fill-opacity:1;" d="M 50.050781 17.699219 C 50.050781 28.5 50.050781 39.273438 50.050781 50.050781 C 33.382812 50.050781 16.714844 50.050781 0.0507812 50.050781 C 0.0507812 33.382812 0.0507812 16.714844 0.0507812 0.0507812 C 16.714844 0.0507812 33.382812 0.0507812 50.050781 0.0507812 C 50.050781 5.925781 50.050781 11.800781 50.050781 17.699219 M 43.976562 1.851562 C 30.855469 1.851562 17.734375 1.851562 4.597656 1.851562 C 4.609375 2.003906 4.617188 2.117188 4.628906 2.234375 C 4.6875 2.886719 4.746094 3.542969 4.804688 4.199219 C 4.910156 5.417969 5.015625 6.636719 5.125 7.855469 C 5.230469 9.074219 5.34375 10.292969 5.453125 11.511719 C 5.558594 12.699219 5.664062 13.886719 5.769531 15.070312 C 5.878906 16.289062 5.992188 17.507812 6.101562 18.726562 C 6.226562 20.121094 6.34375 21.511719 6.46875 22.90625 C 6.609375 24.492188 6.757812 26.074219 6.898438 27.65625 C 7.042969 29.25 7.175781 30.84375 7.316406 32.433594 C 7.476562 34.183594 7.640625 35.933594 7.796875 37.683594 C 7.964844 39.554688 8.132812 41.429688 8.289062 43.304688 C 8.304688 43.464844 8.371094 43.507812 8.507812 43.546875 C 10.964844 44.238281 13.417969 44.933594 15.875 45.625 C 18.859375 46.464844 21.84375 47.308594 24.828125 48.144531 C 24.910156 48.167969 25.007812 48.183594 25.085938 48.160156 C 27.390625 47.515625 29.695312 46.867188 32 46.21875 C 35.097656 45.351562 38.195312 44.480469 41.292969 43.621094 C 41.601562 43.539062 41.8125 43.445312 41.773438 43.082031 C 41.761719 42.984375 41.789062 42.882812 41.796875 42.785156 C 41.941406 41.199219 42.082031 39.617188 42.222656 38.03125 C 42.34375 36.65625 42.472656 35.28125 42.59375 33.902344 C 42.71875 32.484375 42.84375 31.066406 42.96875 29.648438 C 43.09375 28.273438 43.21875 26.898438 43.34375 25.519531 C 43.472656 24.085938 43.597656 22.652344 43.722656 21.214844 C 43.847656 19.839844 43.972656 18.464844 44.09375 17.085938 C 44.234375 15.511719 44.367188 13.933594 44.507812 12.359375 C 44.652344 10.734375 44.800781 9.109375 44.949219 7.484375 C 45.074219 6.082031 45.203125 4.679688 45.328125 3.28125 C 45.371094 2.8125 45.410156 2.34375 45.449219 1.851562 C 44.953125 1.851562 44.488281 1.851562 43.976562 1.851562 Z M 43.976562 1.851562 "/>
<path style=" stroke:none;fill-rule:nonzero;fill:rgb(89.411765%,30.980392%,15.294118%);fill-opacity:1;" d="M 44 1.851562 C 44.488281 1.851562 44.953125 1.851562 45.449219 1.851562 C 45.410156 2.34375 45.371094 2.8125 45.328125 3.28125 C 45.203125 4.679688 45.074219 6.082031 44.949219 7.484375 C 44.800781 9.109375 44.652344 10.734375 44.507812 12.359375 C 44.367188 13.933594 44.234375 15.511719 44.09375 17.085938 C 43.972656 18.464844 43.847656 19.839844 43.722656 21.214844 C 43.597656 22.652344 43.472656 24.085938 43.34375 25.519531 C 43.21875 26.898438 43.09375 28.273438 42.96875 29.648438 C 42.84375 31.066406 42.71875 32.484375 42.59375 33.902344 C 42.472656 35.28125 42.34375 36.65625 42.222656 38.03125 C 42.082031 39.617188 41.941406 41.199219 41.796875 42.785156 C 41.789062 42.882812 41.761719 42.984375 41.773438 43.082031 C 41.8125 43.445312 41.601562 43.539062 41.292969 43.621094 C 38.195312 44.480469 35.097656 45.351562 32 46.21875 C 29.695312 46.867188 27.390625 47.515625 25.085938 48.160156 C 25.007812 48.183594 24.910156 48.167969 24.828125 48.144531 C 21.84375 47.308594 18.859375 46.464844 15.875 45.625 C 13.417969 44.933594 10.964844 44.238281 8.507812 43.546875 C 8.371094 43.507812 8.304688 43.464844 8.289062 43.304688 C 8.132812 41.429688 7.964844 39.554688 7.796875 37.683594 C 7.640625 35.933594 7.476562 34.183594 7.316406 32.433594 C 7.175781 30.84375 7.042969 29.25 6.898438 27.65625 C 6.757812 26.074219 6.609375 24.492188 6.46875 22.90625 C 6.34375 21.511719 6.226562 20.121094 6.101562 18.726562 C 5.992188 17.507812 5.878906 16.289062 5.769531 15.070312 C 5.664062 13.886719 5.558594 12.699219 5.453125 11.511719 C 5.34375 10.292969 5.230469 9.074219 5.125 7.855469 C 5.015625 6.636719 4.910156 5.417969 4.804688 4.199219 C 4.746094 3.542969 4.6875 2.886719 4.628906 2.234375 C 4.617188 2.117188 4.609375 2.003906 4.597656 1.851562 C 17.734375 1.851562 30.855469 1.851562 44 1.851562 M 25.050781 33.957031 C 25.050781 33.957031 25.050781 33.96875 25.011719 33.964844 C 24.9375 33.953125 24.863281 33.945312 24.789062 33.925781 C 23.039062 33.453125 21.289062 32.976562 19.535156 32.511719 C 19.351562 32.464844 19.277344 32.390625 19.261719 32.203125 C 19.164062 31.015625 19.046875 29.828125 18.957031 28.644531 C 18.941406 28.40625 18.859375 28.359375 18.644531 28.359375 C 17.136719 28.367188 15.625 28.363281 14.117188 28.363281 C 14.039062 28.363281 13.957031 28.363281 13.863281 28.363281 C 13.863281 28.476562 13.855469 28.558594 13.863281 28.636719 C 14.058594 31.144531 14.261719 33.652344 14.453125 36.160156 C 14.46875 36.371094 14.546875 36.453125 14.746094 36.507812 C 17.449219 37.242188 20.152344 37.992188 22.855469 38.734375 C 23.566406 38.929688 24.285156 39.113281 25.023438 39.3125 C 25.035156 39.3125 25.042969 39.316406 25.050781 39.363281 C 25.050781 40.953125 25.050781 42.542969 25.050781 44.136719 C 25.050781 44.558594 25.050781 44.558594 25.449219 44.464844 C 25.519531 44.445312 25.59375 44.433594 25.667969 44.414062 C 26.621094 44.144531 27.574219 43.871094 28.527344 43.609375 C 29.59375 43.316406 30.664062 43.039062 31.734375 42.746094 C 32.753906 42.464844 33.769531 42.175781 34.785156 41.894531 C 35.925781 41.578125 37.0625 41.265625 38.207031 40.960938 C 38.445312 40.894531 38.589844 40.785156 38.597656 40.523438 C 38.605469 40.28125 38.628906 40.042969 38.652344 39.800781 C 38.703125 39.171875 38.753906 38.542969 38.8125 37.914062 C 38.890625 37.085938 38.972656 36.261719 39.046875 35.433594 C 39.125 34.582031 39.1875 33.726562 39.261719 32.875 C 39.339844 31.972656 39.421875 31.070312 39.5 30.171875 C 39.554688 29.542969 39.609375 28.914062 39.667969 28.285156 C 39.742188 27.457031 39.824219 26.628906 39.898438 25.800781 C 39.957031 25.15625 40.003906 24.511719 40.0625 23.863281 C 40.140625 22.996094 40.222656 22.128906 40.300781 21.257812 C 40.363281 20.574219 40.425781 19.886719 40.484375 19.199219 C 40.539062 18.59375 40.597656 17.992188 40.648438 17.386719 C 40.707031 16.726562 40.757812 16.0625 40.816406 15.398438 C 40.875 14.714844 40.9375 14.027344 41 13.339844 C 41.054688 12.71875 41.113281 12.097656 41.167969 11.480469 C 41.230469 10.816406 41.292969 10.15625 41.347656 9.492188 C 41.40625 8.824219 41.460938 8.152344 41.519531 7.480469 C 41.574219 6.84375 41.648438 6.207031 41.695312 5.570312 C 41.722656 5.214844 41.695312 5.199219 41.351562 5.199219 C 36.035156 5.199219 30.71875 5.199219 25.402344 5.199219 C 25.050781 5.199219 25.050781 5.203125 25.050781 5.570312 C 25.050781 7.160156 25.050781 8.75 25.027344 10.351562 C 25.015625 10.355469 25.007812 10.355469 24.953125 10.351562 C 20.714844 10.351562 16.476562 10.351562 12.222656 10.351562 C 12.242188 10.671875 12.25 10.960938 12.273438 11.25 C 12.394531 12.652344 12.519531 14.054688 12.644531 15.453125 C 12.789062 17.082031 12.933594 18.707031 13.078125 20.332031 C 13.234375 22.066406 13.398438 23.796875 13.542969 25.53125 C 13.5625 25.785156 13.632812 25.84375 13.878906 25.84375 C 17.511719 25.835938 21.144531 25.839844 24.777344 25.839844 C 24.851562 25.839844 24.925781 25.832031 25.027344 25.839844 C 25.035156 25.84375 25.042969 25.847656 25.050781 25.898438 C 25.050781 28.582031 25.050781 31.261719 25.050781 33.957031 Z M 25.050781 33.957031 "/>
<path style=" stroke:none;fill-rule:nonzero;fill:rgb(94.117647%,39.607843%,16.470588%);fill-opacity:1;" d="M 25.050781 10.34375 C 25.050781 8.75 25.050781 7.160156 25.050781 5.570312 C 25.050781 5.203125 25.050781 5.199219 25.402344 5.199219 C 30.71875 5.199219 36.035156 5.199219 41.351562 5.199219 C 41.695312 5.199219 41.722656 5.214844 41.695312 5.570312 C 41.648438 6.207031 41.574219 6.84375 41.519531 7.480469 C 41.460938 8.152344 41.40625 8.824219 41.347656 9.492188 C 41.292969 10.15625 41.230469 10.816406 41.167969 11.480469 C 41.113281 12.097656 41.054688 12.71875 41 13.339844 C 40.9375 14.027344 40.875 14.714844 40.816406 15.398438 C 40.757812 16.0625 40.707031 16.726562 40.648438 17.386719 C 40.597656 17.992188 40.539062 18.59375 40.484375 19.199219 C 40.425781 19.886719 40.363281 20.574219 40.300781 21.257812 C 40.222656 22.128906 40.140625 22.996094 40.0625 23.863281 C 40.003906 24.511719 39.957031 25.15625 39.898438 25.800781 C 39.824219 26.628906 39.742188 27.457031 39.667969 28.285156 C 39.609375 28.914062 39.554688 29.542969 39.5 30.171875 C 39.421875 31.070312 39.339844 31.972656 39.261719 32.875 C 39.1875 33.726562 39.125 34.582031 39.046875 35.433594 C 38.972656 36.261719 38.890625 37.085938 38.8125 37.914062 C 38.753906 38.542969 38.703125 39.171875 38.652344 39.800781 C 38.628906 40.042969 38.605469 40.28125 38.597656 40.523438 C 38.589844 40.785156 38.445312 40.894531 38.207031 40.960938 C 37.0625 41.265625 35.925781 41.578125 34.785156 41.894531 C 33.769531 42.175781 32.753906 42.464844 31.734375 42.746094 C 30.664062 43.039062 29.59375 43.316406 28.527344 43.609375 C 27.574219 43.871094 26.621094 44.144531 25.667969 44.414062 C 25.59375 44.433594 25.519531 44.445312 25.449219 44.464844 C 25.050781 44.558594 25.050781 44.558594 25.050781 44.136719 C 25.050781 42.542969 25.050781 40.953125 25.066406 39.328125 C 26.996094 38.765625 28.910156 38.234375 30.828125 37.703125 C 32.316406 37.292969 33.808594 36.886719 35.300781 36.46875 C 35.375 36.445312 35.476562 36.339844 35.484375 36.265625 C 35.582031 35.324219 35.664062 34.375 35.75 33.429688 C 35.875 31.980469 36 30.527344 36.125 29.078125 C 36.25 27.640625 36.375 26.207031 36.503906 24.769531 C 36.59375 23.742188 36.695312 22.714844 36.792969 21.6875 C 36.828125 21.355469 36.871094 21.023438 36.914062 20.675781 C 36.792969 20.675781 36.71875 20.675781 36.644531 20.675781 C 32.871094 20.675781 29.097656 20.675781 25.320312 20.675781 C 25.230469 20.675781 25.140625 20.664062 25.050781 20.640625 C 25.050781 18.894531 25.050781 17.167969 25.074219 15.4375 C 25.230469 15.429688 25.363281 15.429688 25.496094 15.429688 C 29.367188 15.429688 33.238281 15.429688 37.113281 15.429688 C 37.273438 15.429688 37.386719 15.433594 37.40625 15.207031 C 37.5 14.089844 37.625 12.972656 37.726562 11.855469 C 37.773438 11.359375 37.792969 10.867188 37.824219 10.351562 C 37.695312 10.351562 37.605469 10.351562 37.515625 10.351562 C 33.484375 10.351562 29.453125 10.351562 25.421875 10.351562 C 25.300781 10.351562 25.175781 10.34375 25.050781 10.34375 Z M 25.050781 10.34375 "/>
<path style=" stroke:none;fill-rule:nonzero;fill:rgb(92.156863%,91.764706%,91.764706%);fill-opacity:1;" d="M 25.003906 25.828125 C 24.925781 25.832031 24.851562 25.839844 24.777344 25.839844 C 21.144531 25.839844 17.511719 25.835938 13.878906 25.84375 C 13.632812 25.84375 13.5625 25.785156 13.542969 25.53125 C 13.398438 23.796875 13.234375 22.066406 13.078125 20.332031 C 12.933594 18.707031 12.789062 17.082031 12.644531 15.453125 C 12.519531 14.054688 12.394531 12.652344 12.273438 11.25 C 12.25 10.960938 12.242188 10.671875 12.222656 10.351562 C 16.476562 10.351562 20.714844 10.351562 24.976562 10.378906 C 25 12.078125 25 13.75 24.976562 15.425781 C 22.59375 15.425781 20.230469 15.425781 17.851562 15.425781 C 17.851562 15.523438 17.847656 15.582031 17.855469 15.636719 C 17.992188 17.230469 18.132812 18.824219 18.261719 20.417969 C 18.28125 20.636719 18.375 20.679688 18.578125 20.679688 C 20.601562 20.671875 22.625 20.675781 24.652344 20.675781 C 24.765625 20.675781 24.882812 20.6875 25 20.714844 C 25 22.4375 25 24.132812 25.003906 25.828125 Z M 25.003906 25.828125 "/>
<path style=" stroke:none;fill-rule:nonzero;fill:rgb(100%,100%,99.607843%);fill-opacity:1;" d="M 25.015625 25.832031 C 25 24.132812 25 22.4375 25.011719 20.707031 C 25.03125 20.671875 25.039062 20.664062 25.046875 20.660156 C 25.140625 20.664062 25.230469 20.675781 25.320312 20.675781 C 29.097656 20.675781 32.871094 20.675781 36.644531 20.675781 C 36.71875 20.675781 36.792969 20.675781 36.914062 20.675781 C 36.871094 21.023438 36.828125 21.355469 36.792969 21.6875 C 36.695312 22.714844 36.59375 23.742188 36.503906 24.769531 C 36.375 26.207031 36.25 27.640625 36.125 29.078125 C 36 30.527344 35.875 31.980469 35.75 33.429688 C 35.664062 34.375 35.582031 35.324219 35.484375 36.265625 C 35.476562 36.339844 35.375 36.445312 35.300781 36.46875 C 33.808594 36.886719 32.316406 37.292969 30.828125 37.703125 C 28.910156 38.234375 26.996094 38.765625 25.066406 39.304688 C 25.042969 39.316406 25.035156 39.3125 25.011719 39.28125 C 25 37.613281 25 35.972656 25.003906 34.332031 C 25.003906 34.210938 25.035156 34.089844 25.050781 33.96875 C 25.050781 33.96875 25.050781 33.957031 25.070312 33.953125 C 26.863281 33.46875 28.632812 32.984375 30.410156 32.511719 C 30.617188 32.457031 30.679688 32.367188 30.699219 32.164062 C 30.875 30.265625 31.0625 28.371094 31.242188 26.472656 C 31.261719 26.269531 31.273438 26.066406 31.292969 25.839844 C 31.175781 25.839844 31.085938 25.839844 30.996094 25.839844 C 29.628906 25.839844 28.261719 25.839844 26.898438 25.839844 C 26.28125 25.839844 25.664062 25.847656 25.050781 25.851562 C 25.042969 25.847656 25.035156 25.84375 25.015625 25.832031 Z M 25.015625 25.832031 "/>
<path style=" stroke:none;fill-rule:nonzero;fill:rgb(92.156863%,91.764706%,91.764706%);fill-opacity:1;" d="M 25.03125 33.964844 C 25.035156 34.089844 25.003906 34.210938 25.003906 34.332031 C 25 35.972656 25 37.613281 25 39.277344 C 24.285156 39.113281 23.566406 38.929688 22.855469 38.734375 C 20.152344 37.992188 17.449219 37.242188 14.746094 36.507812 C 14.546875 36.453125 14.46875 36.371094 14.453125 36.160156 C 14.261719 33.652344 14.058594 31.144531 13.863281 28.636719 C 13.855469 28.558594 13.863281 28.476562 13.863281 28.363281 C 13.957031 28.363281 14.039062 28.363281 14.117188 28.363281 C 15.625 28.363281 17.136719 28.367188 18.644531 28.359375 C 18.859375 28.359375 18.941406 28.40625 18.957031 28.644531 C 19.046875 29.828125 19.164062 31.015625 19.261719 32.203125 C 19.277344 32.390625 19.351562 32.464844 19.535156 32.511719 C 21.289062 32.976562 23.039062 33.453125 24.789062 33.925781 C 24.863281 33.945312 24.9375 33.953125 25.03125 33.964844 Z M 25.03125 33.964844 "/>
<path style=" stroke:none;fill-rule:nonzero;fill:rgb(100%,100%,100%);fill-opacity:1;" d="M 25 15.421875 C 25 13.75 25 12.078125 25 10.382812 C 25.007812 10.355469 25.015625 10.355469 25.039062 10.347656 C 25.175781 10.34375 25.300781 10.351562 25.421875 10.351562 C 29.453125 10.351562 33.484375 10.351562 37.515625 10.351562 C 37.605469 10.351562 37.695312 10.351562 37.824219 10.351562 C 37.792969 10.867188 37.773438 11.359375 37.726562 11.855469 C 37.625 12.972656 37.5 14.089844 37.40625 15.207031 C 37.386719 15.433594 37.273438 15.429688 37.113281 15.429688 C 33.238281 15.429688 29.367188 15.429688 25.496094 15.429688 C 25.363281 15.429688 25.230469 15.429688 25.0625 15.433594 C 25.019531 15.429688 25.011719 15.425781 25 15.421875 Z M 25 15.421875 "/>
<path style=" stroke:none;fill-rule:nonzero;fill:rgb(94.117647%,39.607843%,16.470588%);fill-opacity:1;" d="M 25.050781 25.875 C 25.664062 25.847656 26.28125 25.839844 26.898438 25.839844 C 28.261719 25.839844 29.628906 25.839844 30.996094 25.839844 C 31.085938 25.839844 31.175781 25.839844 31.292969 25.839844 C 31.273438 26.066406 31.261719 26.269531 31.242188 26.472656 C 31.0625 28.371094 30.875 30.265625 30.699219 32.164062 C 30.679688 32.367188 30.617188 32.457031 30.410156 32.511719 C 28.632812 32.984375 26.863281 33.46875 25.070312 33.945312 C 25.050781 31.261719 25.050781 28.582031 25.050781 25.875 Z M 25.050781 25.875 "/>
<path style=" stroke:none;fill-rule:nonzero;fill:rgb(89.411765%,30.980392%,15.294118%);fill-opacity:1;" d="M 24.976562 15.425781 C 25.011719 15.425781 25.019531 15.429688 25.039062 15.4375 C 25.050781 17.167969 25.050781 18.894531 25.050781 20.640625 C 25.039062 20.664062 25.03125 20.671875 25.011719 20.683594 C 24.882812 20.6875 24.765625 20.675781 24.652344 20.675781 C 22.625 20.675781 20.601562 20.671875 18.578125 20.679688 C 18.375 20.679688 18.28125 20.636719 18.261719 20.417969 C 18.132812 18.824219 17.992188 17.230469 17.855469 15.636719 C 17.847656 15.582031 17.851562 15.523438 17.851562 15.425781 C 20.230469 15.425781 22.59375 15.425781 24.976562 15.425781 Z M 24.976562 15.425781 "/>
</g>
</svg>
