<svg version="1.1" id="Layer_1" xmlns="http://www.w3.org/2000/svg" xmlns:xlink="http://www.w3.org/1999/xlink" x="0px" y="0px"
	 width="100%" viewBox="0 0 1000 1000" enable-background="new 0 0 1000 1000" xml:space="preserve">
<path fill="#000000" opacity="1.000000" stroke="none" 
	d="
M1001.000000,354.000000 
	C1001.000000,570.000000 1001.000000,785.500000 1001.000000,1001.000000 
	C667.666687,1001.000000 334.333344,1001.000000 1.000000,1001.000000 
	C1.000000,667.666687 1.000000,334.333344 1.000000,1.000000 
	C334.333344,1.000000 667.666687,1.000000 1001.000000,1.000000 
	C1001.000000,118.500000 1001.000000,236.000000 1001.000000,354.000000 
M879.500000,36.998440 
	C617.107056,36.998440 354.714111,36.998440 91.982315,36.998440 
	C92.214973,40.052273 92.366844,42.363178 92.570747,44.669479 
	C93.729172,57.772617 94.913651,70.873459 96.063705,83.977325 
	C98.203773,108.361565 100.296539,132.749985 102.464417,157.131729 
	C104.632141,181.511627 106.885460,205.883926 109.068359,230.262482 
	C111.191849,253.977524 113.247787,277.698608 115.380936,301.412781 
	C117.573669,325.789215 119.865623,350.156769 122.037949,374.535004 
	C124.520737,402.397339 126.874260,430.271240 129.366776,458.132690 
	C132.200485,489.808136 135.173676,521.471069 137.997772,553.147400 
	C140.836761,584.990417 143.508102,616.848389 146.360657,648.690247 
	C149.495407,683.682007 152.798859,718.658630 155.944717,753.649353 
	C159.314209,791.127502 162.638870,828.609985 165.805008,866.105591 
	C166.074905,869.301758 167.437637,870.184937 170.143784,870.944824 
	C219.279419,884.742371 268.386597,898.641235 317.505585,912.498108 
	C377.173737,929.331055 436.844727,946.153748 496.531189,962.921509 
	C498.171844,963.382385 500.135498,963.637451 501.726654,963.193359 
	C547.842957,950.322021 593.925903,937.331421 640.024597,924.396729 
	C701.965271,907.017029 763.890259,889.580139 825.898071,872.443237 
	C832.019104,870.751465 836.226624,868.888306 835.437439,861.643372 
	C835.225830,859.700928 835.793762,857.677368 835.971313,855.688171 
	C838.799011,824.011169 841.612366,792.332886 844.447937,760.656555 
	C846.912354,733.127136 849.422180,705.601624 851.872375,678.070923 
	C854.396362,649.710876 856.843323,621.343933 859.377991,592.984802 
	C861.838562,565.454468 864.392944,537.932495 866.859741,510.402710 
	C869.430664,481.711578 871.933838,453.014374 874.489075,424.321869 
	C876.940857,396.791199 879.447632,369.265411 881.882690,341.733246 
	C884.669861,310.219452 887.366821,278.697632 890.172424,247.185486 
	C893.066467,214.680618 896.046875,182.183426 898.984070,149.682373 
	C901.516907,121.656281 904.053284,93.630501 906.564941,65.602501 
	C907.404968,56.227226 908.173279,46.845516 909.014404,36.998440 
	C899.097534,36.998440 889.798767,36.998440 879.500000,36.998440 
z"/>
<path fill="#E44F27" opacity="1.000000" stroke="none" 
	d="
M880.000000,36.998440 
	C889.798767,36.998440 899.097534,36.998440 909.014404,36.998440 
	C908.173279,46.845516 907.404968,56.227226 906.564941,65.602501 
	C904.053284,93.630501 901.516907,121.656281 898.984070,149.682373 
	C896.046875,182.183426 893.066467,214.680618 890.172424,247.185486 
	C887.366821,278.697632 884.669861,310.219452 881.882690,341.733246 
	C879.447632,369.265411 876.940857,396.791199 874.489075,424.321869 
	C871.933838,453.014374 869.430664,481.711578 866.859741,510.402710 
	C864.392944,537.932495 861.838562,565.454468 859.377991,592.984802 
	C856.843323,621.343933 854.396362,649.710876 851.872375,678.070923 
	C849.422180,705.601624 846.912354,733.127136 844.447937,760.656555 
	C841.612366,792.332886 838.799011,824.011169 835.971313,855.688171 
	C835.793762,857.677368 835.225830,859.700928 835.437439,861.643372 
	C836.226624,868.888306 832.019104,870.751465 825.898071,872.443237 
	C763.890259,889.580139 701.965271,907.017029 640.024597,924.396729 
	C593.925903,937.331421 547.842957,950.322021 501.726654,963.193359 
	C500.135498,963.637451 498.171844,963.382385 496.531189,962.921509 
	C436.844727,946.153748 377.173737,929.331055 317.505585,912.498108 
	C268.386597,898.641235 219.279419,884.742371 170.143784,870.944824 
	C167.437637,870.184937 166.074905,869.301758 165.805008,866.105591 
	C162.638870,828.609985 159.314209,791.127502 155.944717,753.649353 
	C152.798859,718.658630 149.495407,683.682007 146.360657,648.690247 
	C143.508102,616.848389 140.836761,584.990417 137.997772,553.147400 
	C135.173676,521.471069 132.200485,489.808136 129.366776,458.132690 
	C126.874260,430.271240 124.520737,402.397339 122.037949,374.535004 
	C119.865623,350.156769 117.573669,325.789215 115.380936,301.412781 
	C113.247787,277.698608 111.191849,253.977524 109.068359,230.262482 
	C106.885460,205.883926 104.632141,181.511627 102.464417,157.131729 
	C100.296539,132.749985 98.203773,108.361565 96.063705,83.977325 
	C94.913651,70.873459 93.729172,57.772617 92.570747,44.669479 
	C92.366844,42.363178 92.214973,40.052273 91.982315,36.998440 
	C354.714111,36.998440 617.107056,36.998440 880.000000,36.998440 
M501.036713,679.130310 
	C501.036713,679.130310 501.042938,679.337769 500.201477,679.298706 
	C498.732605,679.032349 497.235474,678.871033 495.799042,678.484253 
	C460.772278,669.051941 425.769928,659.527893 390.703857,650.244385 
	C387.044708,649.275696 385.577179,647.783936 385.265839,644.038513 
	C383.292786,620.303894 380.947327,596.598999 379.149933,572.852051 
	C378.791168,568.112000 377.175903,567.183472 372.858765,567.206665 
	C342.695465,567.368408 312.530945,567.291687 282.366791,567.291321 
	C280.744568,567.291260 279.122314,567.291321 277.238098,567.291321 
	C277.238098,569.509583 277.126984,571.143005 277.254242,572.757751 
	C281.205963,622.906616 285.235962,673.049316 289.052979,723.208374 
	C289.374451,727.432922 290.949738,729.037109 294.923889,730.121521 
	C349.012238,744.879944 403.041351,759.855042 457.107849,774.693787 
	C471.365967,778.607056 485.701477,782.238098 500.493927,786.227417 
	C500.670258,786.268188 500.846588,786.308960 501.003326,787.243042 
	C501.003021,819.069153 501.001831,850.895325 501.002991,882.721436 
	C501.003296,891.152039 501.006287,891.150696 508.963989,889.267517 
	C510.419464,888.923157 511.895172,888.653320 513.333618,888.249695 
	C532.406189,882.898315 551.446960,877.431763 570.549622,872.190369 
	C591.895081,866.333557 613.318481,860.760681 634.665466,854.909119 
	C655.044067,849.322937 675.353455,843.484985 695.719727,837.853088 
	C718.498718,831.554077 741.285278,825.279114 764.121216,819.191467 
	C768.905579,817.916016 771.759521,815.666870 771.958130,810.461426 
	C772.141785,805.649170 772.612244,800.846313 773.015808,796.044312 
	C774.073364,783.460693 775.101440,770.874146 776.255737,758.299255 
	C777.774292,741.755493 779.489502,725.229492 780.959290,708.681580 
	C782.473389,691.634460 783.749207,674.566406 785.211914,657.514526 
	C786.759399,639.473267 788.404114,621.440308 790.006409,603.403748 
	C791.123779,590.825500 792.213562,578.244751 793.365906,565.669678 
	C794.881897,549.125305 796.493896,532.589600 797.976257,516.042236 
	C799.132629,503.132996 800.104797,490.207336 801.247925,477.296814 
	C802.786194,459.921906 804.415466,442.554993 805.995422,425.183746 
	C807.244324,411.451813 808.477844,397.718536 809.718323,383.985840 
	C810.809631,371.904846 811.938843,359.827118 812.982178,347.741974 
	C814.125427,334.498993 815.150879,321.245758 816.298645,308.003174 
	C817.489197,294.267059 818.763733,280.538208 820.003601,266.806366 
	C821.124268,254.394882 822.242615,241.983200 823.370972,229.572418 
	C824.574463,216.336563 825.828857,203.105209 826.986694,189.865387 
	C828.159180,176.458313 829.184387,163.038254 830.377930,149.633118 
	C831.512390,136.891068 832.948608,124.173767 833.924988,111.420547 
	C834.470337,104.298096 833.938110,104.005058 826.995361,104.004730 
	C720.685669,103.999702 614.375916,103.999771 508.066193,104.004684 
	C501.019928,104.005013 501.006958,104.027649 501.004761,111.372292 
	C500.995239,143.198547 500.993958,175.024811 500.509918,207.030136 
	C500.348724,207.086411 500.187561,207.142685 499.095978,207.052200 
	C414.330994,207.052200 329.566010,207.052200 244.451492,207.052200 
	C244.805649,213.421143 244.976028,219.224976 245.475311,225.000351 
	C247.899277,253.037949 250.407654,281.068268 252.893311,309.100494 
	C255.776260,341.613037 258.643066,374.127075 261.560272,406.636566 
	C264.671021,441.302765 267.964447,475.953522 270.825317,510.640137 
	C271.240509,515.674072 272.678955,516.912537 277.601837,516.901672 
	C350.255280,516.741089 422.909210,516.793457 495.563019,516.783020 
	C497.056061,516.782837 498.549072,516.636353 500.522339,516.788391 
	C500.680420,516.869324 500.838470,516.950195 500.997681,517.964355 
	C500.999390,571.618103 501.001068,625.271790 501.036713,679.130310 
z"/>
<path fill="#F0652A" opacity="1.000000" stroke="none" 
	d="
M500.989685,206.851074 
	C500.993958,175.024811 500.995239,143.198547 501.004761,111.372292 
	C501.006958,104.027649 501.019928,104.005013 508.066193,104.004684 
	C614.375916,103.999771 720.685669,103.999702 826.995361,104.004730 
	C833.938110,104.005058 834.470337,104.298096 833.924988,111.420547 
	C832.948608,124.173767 831.512390,136.891068 830.377930,149.633118 
	C829.184387,163.038254 828.159180,176.458313 826.986694,189.865387 
	C825.828857,203.105209 824.574463,216.336563 823.370972,229.572418 
	C822.242615,241.983200 821.124268,254.394882 820.003601,266.806366 
	C818.763733,280.538208 817.489197,294.267059 816.298645,308.003174 
	C815.150879,321.245758 814.125427,334.498993 812.982178,347.741974 
	C811.938843,359.827118 810.809631,371.904846 809.718323,383.985840 
	C808.477844,397.718536 807.244324,411.451813 805.995422,425.183746 
	C804.415466,442.554993 802.786194,459.921906 801.247925,477.296814 
	C800.104797,490.207336 799.132629,503.132996 797.976257,516.042236 
	C796.493896,532.589600 794.881897,549.125305 793.365906,565.669678 
	C792.213562,578.244751 791.123779,590.825500 790.006409,603.403748 
	C788.404114,621.440308 786.759399,639.473267 785.211914,657.514526 
	C783.749207,674.566406 782.473389,691.634460 780.959290,708.681580 
	C779.489502,725.229492 777.774292,741.755493 776.255737,758.299255 
	C775.101440,770.874146 774.073364,783.460693 773.015808,796.044312 
	C772.612244,800.846313 772.141785,805.649170 771.958130,810.461426 
	C771.759521,815.666870 768.905579,817.916016 764.121216,819.191467 
	C741.285278,825.279114 718.498718,831.554077 695.719727,837.853088 
	C675.353455,843.484985 655.044067,849.322937 634.665466,854.909119 
	C613.318481,860.760681 591.895081,866.333557 570.549622,872.190369 
	C551.446960,877.431763 532.406189,882.898315 513.333618,888.249695 
	C511.895172,888.653320 510.419464,888.923157 508.963989,889.267517 
	C501.006287,891.150696 501.003296,891.152039 501.002991,882.721436 
	C501.001831,850.895325 501.003021,819.069153 501.323120,786.569763 
	C539.942932,775.286377 578.237244,764.655579 616.544861,754.072876 
	C646.358215,745.836731 676.199890,737.702698 705.976624,729.336914 
	C707.524841,728.901917 709.565979,726.817871 709.717651,725.332031 
	C711.645813,706.447266 713.303345,687.534302 714.963013,668.622681 
	C717.510498,639.593201 720.000854,610.558655 722.525330,581.527161 
	C725.021179,552.824890 727.473633,524.118713 730.050781,495.423706 
	C731.897278,474.863312 733.877991,454.314636 735.883728,433.769012 
	C736.535645,427.091248 737.456055,420.439697 738.285583,413.508759 
	C735.877258,413.508759 734.382507,413.508698 732.887817,413.508728 
	C657.403687,413.510284 581.919556,413.514099 506.435394,413.500122 
	C504.614502,413.499786 502.793671,413.300781 500.978851,412.777954 
	C500.991455,377.868439 500.998047,343.375427 501.460938,308.767212 
	C504.581299,308.622833 507.245361,308.568329 509.909454,308.568176 
	C587.354309,308.563416 664.799133,308.556488 742.243958,308.590820 
	C745.452454,308.592255 747.718018,308.692871 748.105835,304.158234 
	C750.019531,281.779083 752.471069,259.446564 754.526794,237.078644 
	C755.432495,227.223740 755.849060,217.323883 756.514526,207.029282 
	C753.910034,207.029282 752.105591,207.029266 750.301147,207.029266 
	C669.691895,207.029221 589.082642,207.030777 508.473389,207.021667 
	C505.978821,207.021378 503.484253,206.910431 500.989685,206.851074 
z"/>
<path fill="#EBEAEA" opacity="1.000000" stroke="none" 
	d="
M500.042114,516.558167 
	C498.549072,516.636353 497.056061,516.782837 495.563019,516.783020 
	C422.909210,516.793457 350.255280,516.741089 277.601837,516.901672 
	C272.678955,516.912537 271.240509,515.674072 270.825317,510.640137 
	C267.964447,475.953522 264.671021,441.302765 261.560272,406.636566 
	C258.643066,374.127075 255.776260,341.613037 252.893311,309.100494 
	C250.407654,281.068268 247.899277,253.037949 245.475311,225.000351 
	C244.976028,219.224976 244.805649,213.421143 244.451492,207.052200 
	C329.566010,207.052200 414.330994,207.052200 499.558197,207.581543 
	C500.025970,241.564285 500.031525,275.017670 499.567780,308.510071 
	C451.850769,308.549133 404.603058,308.549133 357.062408,308.549133 
	C357.062408,310.469757 356.977814,311.614166 357.074738,312.742981 
	C359.810791,344.605072 362.634644,376.459930 365.236267,408.332947 
	C365.597290,412.755768 367.471466,413.602234 371.523834,413.588593 
	C412.019714,413.452332 452.516266,413.505829 493.012604,413.530151 
	C495.334442,413.531525 497.656128,413.744049 499.981934,414.335815 
	C500.004700,448.728302 500.023407,482.643219 500.042114,516.558167 
z"/>
<path fill="#FFFFFE" opacity="1.000000" stroke="none" 
	d="
M500.282227,516.673279 
	C500.023407,482.643219 500.004700,448.728302 500.234009,414.174866 
	C500.645630,413.422394 500.809204,413.308411 500.972809,413.194458 
	C502.793671,413.300781 504.614502,413.499786 506.435394,413.500122 
	C581.919556,413.514099 657.403687,413.510284 732.887817,413.508728 
	C734.382507,413.508698 735.877258,413.508759 738.285583,413.508759 
	C737.456055,420.439697 736.535645,427.091248 735.883728,433.769012 
	C733.877991,454.314636 731.897278,474.863312 730.050781,495.423706 
	C727.473633,524.118713 725.021179,552.824890 722.525330,581.527161 
	C720.000854,610.558655 717.510498,639.593201 714.963013,668.622681 
	C713.303345,687.534302 711.645813,706.447266 709.717651,725.332031 
	C709.565979,726.817871 707.524841,728.901917 705.976624,729.336914 
	C676.199890,737.702698 646.358215,745.836731 616.544861,754.072876 
	C578.237244,764.655579 539.942932,775.286377 501.332886,786.123169 
	C500.846588,786.308960 500.670258,786.268188 500.247437,785.644531 
	C500.001038,752.259766 499.979004,719.457947 500.046173,686.656311 
	C500.051147,684.216125 500.695709,681.777222 501.042969,679.337769 
	C501.042938,679.337769 501.036713,679.130310 501.405060,679.031433 
	C537.227417,669.337952 572.658386,659.656128 608.166565,650.266296 
	C612.305664,649.171692 613.620728,647.350342 613.995483,643.297974 
	C617.504944,605.350281 621.216370,567.421387 624.849426,529.485046 
	C625.238464,525.422791 625.499756,521.348267 625.858032,516.800415 
	C623.490173,516.800415 621.691223,516.800415 619.892334,516.800415 
	C592.578674,516.800354 565.264954,516.777161 537.951294,516.810730 
	C525.632935,516.825867 513.314758,516.954102 500.996490,517.031006 
	C500.838470,516.950195 500.680420,516.869324 500.282227,516.673279 
z"/>
<path fill="#EBEAEA" opacity="1.000000" stroke="none" 
	d="
M500.622223,679.318237 
	C500.695709,681.777222 500.051147,684.216125 500.046173,686.656311 
	C499.979004,719.457947 500.001038,752.259766 500.001190,785.530151 
	C485.701477,782.238098 471.365967,778.607056 457.107849,774.693787 
	C403.041351,759.855042 349.012238,744.879944 294.923889,730.121521 
	C290.949738,729.037109 289.374451,727.432922 289.052979,723.208374 
	C285.235962,673.049316 281.205963,622.906616 277.254242,572.757751 
	C277.126984,571.143005 277.238098,569.509583 277.238098,567.291321 
	C279.122314,567.291321 280.744568,567.291260 282.366791,567.291321 
	C312.530945,567.291687 342.695465,567.368408 372.858765,567.206665 
	C377.175903,567.183472 378.791168,568.112000 379.149933,572.852051 
	C380.947327,596.598999 383.292786,620.303894 385.265839,644.038513 
	C385.577179,647.783936 387.044708,649.275696 390.703857,650.244385 
	C425.769928,659.527893 460.772278,669.051941 495.799042,678.484253 
	C497.235474,678.871033 498.732605,679.032349 500.622223,679.318237 
z"/>
<path fill="#FFFFFF" opacity="1.000000" stroke="none" 
	d="
M500.037079,308.471039 
	C500.031525,275.017670 500.025970,241.564285 500.023438,207.654938 
	C500.187561,207.142685 500.348724,207.086411 500.749817,206.940613 
	C503.484253,206.910431 505.978821,207.021378 508.473389,207.021667 
	C589.082642,207.030777 669.691895,207.029221 750.301147,207.029266 
	C752.105591,207.029266 753.910034,207.029282 756.514526,207.029282 
	C755.849060,217.323883 755.432495,227.223740 754.526794,237.078644 
	C752.471069,259.446564 750.019531,281.779083 748.105835,304.158234 
	C747.718018,308.692871 745.452454,308.592255 742.243958,308.590820 
	C664.799133,308.556488 587.354309,308.563416 509.909454,308.568176 
	C507.245361,308.568329 504.581299,308.622833 501.230896,308.636505 
	C500.375458,308.571014 500.206268,308.521027 500.037079,308.471039 
z"/>
<path fill="#F0652A" opacity="1.000000" stroke="none" 
	d="
M500.997070,517.497681 
	C513.314758,516.954102 525.632935,516.825867 537.951294,516.810730 
	C565.264954,516.777161 592.578674,516.800354 619.892334,516.800415 
	C621.691223,516.800415 623.490173,516.800415 625.858032,516.800415 
	C625.499756,521.348267 625.238464,525.422791 624.849426,529.485046 
	C621.216370,567.421387 617.504944,605.350281 613.995483,643.297974 
	C613.620728,647.350342 612.305664,649.171692 608.166565,650.266296 
	C572.658386,659.656128 537.227417,669.337952 501.388062,678.929077 
	C501.001068,625.271790 500.999390,571.618103 500.997070,517.497681 
z"/>
<path fill="#E44F27" opacity="1.000000" stroke="none" 
	d="
M499.567780,308.510071 
	C500.206268,308.521027 500.375458,308.571014 500.774628,308.751709 
	C500.998047,343.375427 500.991455,377.868439 500.978851,412.777954 
	C500.809204,413.308411 500.645630,413.422394 500.229980,413.697327 
	C497.656128,413.744049 495.334442,413.531525 493.012604,413.530151 
	C452.516266,413.505829 412.019714,413.452332 371.523834,413.588593 
	C367.471466,413.602234 365.597290,412.755768 365.236267,408.332947 
	C362.634644,376.459930 359.810791,344.605072 357.074738,312.742981 
	C356.977814,311.614166 357.062408,310.469757 357.062408,308.549133 
	C404.603058,308.549133 451.850769,308.549133 499.567780,308.510071 
z"/>
</svg>