<?xml version="1.0" encoding="UTF-8"?>
<svg xmlns="http://www.w3.org/2000/svg" xmlns:xlink="http://www.w3.org/1999/xlink" width="50px" height="50px" viewBox="0 0 50 50" version="1.1">
<g id="surface1">
<path style=" stroke:none;fill-rule:nonzero;fill:rgb(96.862745%,87.45098%,11.372549%);fill-opacity:1;" d="M 32 51 C 21.335938 51 11.167969 51 1 51 C 1 34.332031 1 17.667969 1 1 C 17.667969 1 34.332031 1 51 1 C 51 17.664062 51 34.332031 51 51 C 44.835938 51 38.667969 51 32 51 M 14.503906 38.910156 C 14.671875 38.863281 14.84375 38.816406 15.816406 38.917969 C 20.164062 39.304688 22.90625 37.605469 22.992188 32.980469 C 23.105469 27.03125 23.019531 21.074219 23.019531 15.308594 C 18.96875 14.433594 17.808594 15.960938 17.964844 19.199219 C 18.117188 22.355469 18 25.523438 17.992188 28.6875 C 17.984375 31.996094 18.402344 35.59375 12.992188 33.175781 C 12.03125 32.75 10.355469 33.921875 7.277344 34.917969 C 10.316406 36.683594 12.148438 37.746094 14.503906 38.910156 M 27.605469 37.070312 C 31.21875 37.65625 34.921875 38.949219 38.414062 38.523438 C 40.128906 38.3125 42.726562 34.835938 42.628906 32.957031 C 42.507812 30.558594 40.339844 28.027344 38.53125 26.03125 C 36.863281 24.191406 34.503906 22.984375 32.445312 21.5 C 32.78125 20.964844 33.113281 20.433594 33.449219 19.898438 C 34.671875 20.128906 35.917969 20.621094 37.113281 20.519531 C 38.40625 20.40625 39.652344 19.738281 40.917969 19.3125 C 40.207031 18.191406 39.757812 16.664062 38.742188 16.023438 C 35.328125 13.875 29.683594 15.136719 27.976562 18.160156 C 25.777344 22.066406 27.128906 25.746094 31.613281 28.222656 C 33.523438 29.277344 35.371094 30.449219 37.25 31.566406 C 37.152344 32.125 37.050781 32.6875 36.953125 33.246094 C 35.167969 33.246094 33.324219 33.53125 31.601562 33.191406 C 27.507812 32.382812 26.246094 33.1875 27.605469 37.070312 Z M 27.605469 37.070312 "/>
<path style=" stroke:none;fill-rule:nonzero;fill:rgb(1.176471%,0.784314%,0.784314%);fill-opacity:1;" d="M 27.3125 36.796875 C 26.246094 33.1875 27.507812 32.382812 31.601562 33.191406 C 33.324219 33.53125 35.167969 33.246094 36.953125 33.246094 C 37.050781 32.6875 37.152344 32.125 37.25 31.566406 C 35.371094 30.449219 33.523438 29.277344 31.613281 28.222656 C 27.128906 25.746094 25.777344 22.066406 27.976562 18.160156 C 29.683594 15.136719 35.328125 13.875 38.742188 16.023438 C 39.757812 16.664062 40.207031 18.191406 40.917969 19.3125 C 39.652344 19.738281 38.40625 20.40625 37.113281 20.519531 C 35.917969 20.621094 34.671875 20.128906 33.449219 19.898438 C 33.113281 20.433594 32.78125 20.964844 32.445312 21.5 C 34.503906 22.984375 36.863281 24.191406 38.53125 26.03125 C 40.339844 28.027344 42.507812 30.558594 42.628906 32.957031 C 42.726562 34.835938 40.128906 38.3125 38.414062 38.523438 C 34.921875 38.949219 31.21875 37.65625 27.3125 36.796875 Z M 27.3125 36.796875 "/>
<path style=" stroke:none;fill-rule:nonzero;fill:rgb(0.784314%,0.784314%,0.784314%);fill-opacity:1;" d="M 13.980469 38.8125 C 12.148438 37.746094 10.316406 36.683594 7.277344 34.917969 C 10.355469 33.921875 12.03125 32.75 12.992188 33.175781 C 18.402344 35.59375 17.984375 31.996094 17.992188 28.6875 C 18 25.523438 18.117188 22.355469 17.964844 19.199219 C 17.808594 15.960938 18.96875 14.433594 23.019531 15.308594 C 23.019531 21.074219 23.105469 27.03125 22.992188 32.980469 C 22.90625 37.605469 20.164062 39.304688 15.308594 38.71875 C 14.453125 38.382812 14.179688 38.480469 13.980469 38.8125 Z M 13.980469 38.8125 "/>
<path style=" stroke:none;fill-rule:nonzero;fill:rgb(15.294118%,12.54902%,4.705882%);fill-opacity:1;" d="M 14.242188 38.863281 C 14.179688 38.480469 14.453125 38.382812 14.90625 38.644531 C 14.84375 38.816406 14.671875 38.863281 14.242188 38.863281 Z M 14.242188 38.863281 "/>
</g>
</svg>
