<?xml version="1.0" encoding="UTF-8"?>
<svg xmlns="http://www.w3.org/2000/svg" xmlns:xlink="http://www.w3.org/1999/xlink" width="50px" height="50px" viewBox="0 0 50 50" version="1.1">
<g id="surface1">
<path style=" stroke:none;fill-rule:nonzero;fill:rgb(94.509804%,86.666667%,25.098039%);fill-opacity:1;" d="M 27.75 50.050781 C 18.5 50.050781 9.273438 50.050781 0.0507812 50.050781 C 0.0507812 33.382812 0.0507812 16.714844 0.0507812 0.0507812 C 16.714844 0.0507812 33.382812 0.0507812 50.050781 0.0507812 C 50.050781 16.714844 50.050781 33.382812 50.050781 50.050781 C 42.625 50.050781 35.199219 50.050781 27.75 50.050781 M 35.6875 27.167969 C 35.667969 25.835938 36.195312 24.832031 37.4375 24.257812 C 37.925781 24.03125 38.445312 23.914062 38.984375 23.902344 C 40.429688 23.871094 41.8125 24.164062 43.125 24.777344 C 43.617188 25.007812 44.089844 25.292969 44.59375 25.5625 C 45.183594 24.664062 45.777344 23.753906 46.371094 22.855469 C 46.339844 22.816406 46.328125 22.800781 46.316406 22.792969 C 46.277344 22.761719 46.238281 22.730469 46.195312 22.703125 C 43.71875 20.984375 40.972656 20.304688 37.980469 20.660156 C 36.730469 20.8125 35.574219 21.246094 34.59375 22.074219 C 33.273438 23.183594 32.597656 24.625 32.460938 26.328125 C 32.363281 27.550781 32.507812 28.742188 33.074219 29.851562 C 33.949219 31.5625 35.386719 32.566406 37.214844 32.988281 C 38.429688 33.265625 39.675781 33.398438 40.90625 33.601562 C 41.648438 33.722656 42.351562 33.941406 42.925781 34.453125 C 43.625 35.082031 43.808594 35.894531 43.75 36.792969 C 43.683594 37.839844 43.207031 38.632812 42.253906 39.101562 C 41.960938 39.25 41.644531 39.375 41.320312 39.441406 C 38.640625 39.984375 36.183594 39.449219 33.953125 37.871094 C 33.777344 37.746094 33.609375 37.609375 33.421875 37.464844 C 32.710938 38.304688 32.007812 39.132812 31.296875 39.972656 C 31.347656 40.015625 31.378906 40.042969 31.410156 40.070312 C 34.730469 42.847656 38.519531 43.585938 42.671875 42.5625 C 44.234375 42.179688 45.484375 41.296875 46.257812 39.828125 C 46.683594 39.011719 46.878906 38.132812 46.972656 37.222656 C 47.257812 34.53125 45.894531 31.351562 42.382812 30.503906 C 41.3125 30.242188 40.207031 30.125 39.113281 29.949219 C 38.394531 29.832031 37.6875 29.683594 37.054688 29.300781 C 36.273438 28.828125 35.765625 28.160156 35.6875 27.167969 M 17.253906 39.179688 C 16.824219 39.492188 16.390625 39.804688 15.949219 40.121094 C 16.398438 40.789062 16.933594 41.359375 17.589844 41.796875 C 19.15625 42.847656 20.898438 43.207031 22.738281 42.886719 C 24.992188 42.496094 26.714844 41.285156 27.769531 39.226562 C 28.3125 38.167969 28.46875 37.011719 28.472656 35.832031 C 28.472656 30.902344 28.472656 25.96875 28.472656 21.039062 C 28.472656 20.949219 28.472656 20.859375 28.472656 20.765625 C 27.378906 20.765625 26.316406 20.765625 25.230469 20.765625 C 25.230469 20.882812 25.230469 20.988281 25.230469 21.097656 C 25.230469 25.886719 25.230469 30.675781 25.226562 35.46875 C 25.226562 35.824219 25.207031 36.183594 25.152344 36.539062 C 24.914062 38.101562 23.984375 39.101562 22.496094 39.523438 C 21.019531 39.941406 19.78125 39.4375 18.769531 38.324219 C 18.726562 38.277344 18.683594 38.230469 18.632812 38.183594 C 18.171875 38.515625 17.726562 38.835938 17.253906 39.179688 Z M 17.253906 39.179688 "/>
<path style=" stroke:none;fill-rule:nonzero;fill:rgb(20%,20.392157%,18.823529%);fill-opacity:1;" d="M 35.691406 27.191406 C 35.765625 28.160156 36.273438 28.828125 37.054688 29.300781 C 37.6875 29.683594 38.394531 29.832031 39.113281 29.949219 C 40.207031 30.125 41.3125 30.242188 42.382812 30.503906 C 45.894531 31.351562 47.257812 34.53125 46.972656 37.222656 C 46.878906 38.132812 46.683594 39.011719 46.257812 39.828125 C 45.484375 41.296875 44.234375 42.179688 42.671875 42.5625 C 38.519531 43.585938 34.730469 42.847656 31.410156 40.070312 C 31.378906 40.042969 31.347656 40.015625 31.296875 39.972656 C 32.007812 39.132812 32.710938 38.304688 33.421875 37.464844 C 33.609375 37.609375 33.777344 37.746094 33.953125 37.871094 C 36.183594 39.449219 38.640625 39.984375 41.320312 39.441406 C 41.644531 39.375 41.960938 39.25 42.253906 39.101562 C 43.207031 38.632812 43.683594 37.839844 43.75 36.792969 C 43.808594 35.894531 43.625 35.082031 42.925781 34.453125 C 42.351562 33.941406 41.648438 33.722656 40.90625 33.601562 C 39.675781 33.398438 38.429688 33.265625 37.214844 32.988281 C 35.386719 32.566406 33.949219 31.5625 33.074219 29.851562 C 32.507812 28.742188 32.363281 27.550781 32.460938 26.328125 C 32.597656 24.625 33.273438 23.183594 34.59375 22.074219 C 35.574219 21.246094 36.730469 20.8125 37.980469 20.660156 C 40.972656 20.304688 43.71875 20.984375 46.195312 22.703125 C 46.238281 22.730469 46.277344 22.761719 46.316406 22.792969 C 46.328125 22.800781 46.339844 22.816406 46.371094 22.855469 C 45.777344 23.753906 45.183594 24.664062 44.59375 25.5625 C 44.089844 25.292969 43.617188 25.007812 43.125 24.777344 C 41.8125 24.164062 40.429688 23.871094 38.984375 23.902344 C 38.445312 23.914062 37.925781 24.03125 37.4375 24.257812 C 36.195312 24.832031 35.667969 25.835938 35.691406 27.191406 Z M 35.691406 27.191406 "/>
<path style=" stroke:none;fill-rule:nonzero;fill:rgb(19.607843%,20%,18.823529%);fill-opacity:1;" d="M 17.269531 39.167969 C 17.726562 38.835938 18.171875 38.515625 18.632812 38.183594 C 18.683594 38.230469 18.726562 38.277344 18.769531 38.324219 C 19.78125 39.4375 21.019531 39.941406 22.496094 39.523438 C 23.984375 39.101562 24.914062 38.101562 25.152344 36.539062 C 25.207031 36.183594 25.226562 35.824219 25.226562 35.46875 C 25.230469 30.675781 25.230469 25.886719 25.230469 21.097656 C 25.230469 20.988281 25.230469 20.882812 25.230469 20.765625 C 26.316406 20.765625 27.378906 20.765625 28.472656 20.765625 C 28.472656 20.859375 28.472656 20.949219 28.472656 21.039062 C 28.472656 25.96875 28.472656 30.902344 28.472656 35.832031 C 28.46875 37.011719 28.3125 38.167969 27.769531 39.226562 C 26.714844 41.285156 24.992188 42.496094 22.738281 42.886719 C 20.898438 43.207031 19.15625 42.847656 17.589844 41.796875 C 16.933594 41.359375 16.398438 40.789062 15.949219 40.121094 C 16.390625 39.804688 16.824219 39.492188 17.269531 39.167969 Z M 17.269531 39.167969 "/>
</g>
</svg>
