<svg version="1.1" id="Layer_1" xmlns="http://www.w3.org/2000/svg" xmlns:xlink="http://www.w3.org/1999/xlink" x="0px" y="0px"
	 width="100%" viewBox="0 0 1000 1000" enable-background="new 0 0 1000 1000" xml:space="preserve">
<path fill="#F1DD40" opacity="1.000000" stroke="none" 
	d="
M555.000000,1001.000000 
	C370.000000,1001.000000 185.500000,1001.000000 1.000000,1001.000000 
	C1.000000,667.666687 1.000000,334.333344 1.000000,1.000000 
	C334.333344,1.000000 667.666687,1.000000 1001.000000,1.000000 
	C1001.000000,334.333344 1001.000000,667.666687 1001.000000,1001.000000 
	C852.500000,1001.000000 704.000000,1001.000000 555.000000,1001.000000 
M713.769958,543.366028 
	C713.365173,516.720886 723.888672,496.605225 748.730530,485.159821 
	C758.527710,480.645935 768.916687,478.320282 779.678955,478.071014 
	C808.631165,477.400482 836.286316,483.291534 862.475098,495.547302 
	C872.382629,500.183807 881.817017,505.831177 891.847778,511.222382 
	C903.646545,493.258026 915.575867,475.094879 927.408264,457.079285 
	C926.778320,456.336365 926.600037,456.041748 926.346619,455.842773 
	C925.561401,455.226196 924.763123,454.623657 923.942749,454.054840 
	C874.340210,419.659760 819.441956,406.084381 759.639893,413.240875 
	C734.605042,416.236786 711.513000,424.959930 691.890076,441.460724 
	C665.443298,463.699707 651.917542,492.513519 649.227417,526.575928 
	C647.295715,551.034973 650.148987,574.824036 661.500427,597.021301 
	C678.998962,631.238892 707.762512,651.319702 744.319031,659.732849 
	C768.583801,665.317261 793.516235,667.991638 818.140686,672.024963 
	C832.962280,674.452637 847.038086,678.844238 858.502258,689.095520 
	C872.492188,701.605164 876.157898,717.927734 875.006409,735.836243 
	C873.659119,756.791870 864.148010,772.656128 845.107056,782.050720 
	C839.189636,784.970337 832.852600,787.536560 826.419189,788.835205 
	C772.809998,799.656250 723.655457,789.000061 679.045715,757.391113 
	C675.529846,754.899902 672.183167,752.169678 668.459656,749.322571 
	C654.241577,766.091919 640.175415,782.682007 625.948303,799.462036 
	C626.936218,800.307190 627.562500,800.853394 628.199646,801.386536 
	C694.642761,856.986084 770.379333,871.715149 853.426941,851.262817 
	C884.709045,843.558899 909.710693,825.920349 925.126221,796.592102 
	C933.703735,780.273376 937.539734,762.685974 939.472290,744.473633 
	C945.187134,690.617676 917.883057,627.014526 847.694092,610.042236 
	C826.252380,604.857544 804.125732,602.479004 782.288452,598.966553 
	C767.916931,596.655029 753.737427,593.664124 741.125061,586.031067 
	C725.445984,576.541992 715.342529,563.180237 713.769958,543.366028 
M345.081146,783.580933 
	C336.453949,789.822083 327.826782,796.063232 319.002625,802.446838 
	C327.979767,815.777893 338.638580,827.169250 351.783325,835.973572 
	C383.138977,856.975464 417.937561,864.151306 454.730774,857.762329 
	C499.861572,849.925598 534.266113,825.711487 555.409241,784.518127 
	C566.264038,763.369507 569.413269,740.246216 569.417175,716.673157 
	C569.433472,618.034546 569.424316,519.395874 569.424500,420.757233 
	C569.424500,418.986664 569.424500,417.216095 569.424500,415.276917 
	C547.550171,415.276917 526.306458,415.276917 504.575348,415.276917 
	C504.575348,417.676514 504.575348,419.803375 504.575348,421.930237 
	C504.575317,517.736328 504.606323,613.542480 504.512360,709.348511 
	C504.505371,716.484802 504.104126,723.696716 503.029449,730.742798 
	C498.256775,762.034424 479.725098,782.000793 449.938019,790.461975 
	C420.383575,798.857239 395.640198,788.782288 375.388336,766.471863 
	C374.536865,765.533875 373.642456,764.634949 372.694763,763.640930 
	C363.476227,770.292603 354.566681,776.721252 345.081146,783.580933 
z"/>
<path fill="#333430" opacity="1.000000" stroke="none" 
	d="
M713.800293,543.839050 
	C715.342529,563.180237 725.445984,576.541992 741.125061,586.031067 
	C753.737427,593.664124 767.916931,596.655029 782.288452,598.966553 
	C804.125732,602.479004 826.252380,604.857544 847.694092,610.042236 
	C917.883057,627.014526 945.187134,690.617676 939.472290,744.473633 
	C937.539734,762.685974 933.703735,780.273376 925.126221,796.592102 
	C909.710693,825.920349 884.709045,843.558899 853.426941,851.262817 
	C770.379333,871.715149 694.642761,856.986084 628.199646,801.386536 
	C627.562500,800.853394 626.936218,800.307190 625.948303,799.462036 
	C640.175415,782.682007 654.241577,766.091919 668.459656,749.322571 
	C672.183167,752.169678 675.529846,754.899902 679.045715,757.391113 
	C723.655457,789.000061 772.809998,799.656250 826.419189,788.835205 
	C832.852600,787.536560 839.189636,784.970337 845.107056,782.050720 
	C864.148010,772.656128 873.659119,756.791870 875.006409,735.836243 
	C876.157898,717.927734 872.492188,701.605164 858.502258,689.095520 
	C847.038086,678.844238 832.962280,674.452637 818.140686,672.024963 
	C793.516235,667.991638 768.583801,665.317261 744.319031,659.732849 
	C707.762512,651.319702 678.998962,631.238892 661.500427,597.021301 
	C650.148987,574.824036 647.295715,551.034973 649.227417,526.575928 
	C651.917542,492.513519 665.443298,463.699707 691.890076,441.460724 
	C711.513000,424.959930 734.605042,416.236786 759.639893,413.240875 
	C819.441956,406.084381 874.340210,419.659760 923.942749,454.054840 
	C924.763123,454.623657 925.561401,455.226196 926.346619,455.842773 
	C926.600037,456.041748 926.778320,456.336365 927.408264,457.079285 
	C915.575867,475.094879 903.646545,493.258026 891.847778,511.222382 
	C881.817017,505.831177 872.382629,500.183807 862.475098,495.547302 
	C836.286316,483.291534 808.631165,477.400482 779.678955,478.071014 
	C768.916687,478.320282 758.527710,480.645935 748.730530,485.159821 
	C723.888672,496.605225 713.365173,516.720886 713.800293,543.839050 
z"/>
<path fill="#323330" opacity="1.000000" stroke="none" 
	d="
M345.369141,783.365417 
	C354.566681,776.721252 363.476227,770.292603 372.694763,763.640930 
	C373.642456,764.634949 374.536865,765.533875 375.388336,766.471863 
	C395.640198,788.782288 420.383575,798.857239 449.938019,790.461975 
	C479.725098,782.000793 498.256775,762.034424 503.029449,730.742798 
	C504.104126,723.696716 504.505371,716.484802 504.512360,709.348511 
	C504.606323,613.542480 504.575317,517.736328 504.575348,421.930237 
	C504.575348,419.803375 504.575348,417.676514 504.575348,415.276917 
	C526.306458,415.276917 547.550171,415.276917 569.424500,415.276917 
	C569.424500,417.216095 569.424500,418.986664 569.424500,420.757233 
	C569.424316,519.395874 569.433472,618.034546 569.417175,716.673157 
	C569.413269,740.246216 566.264038,763.369507 555.409241,784.518127 
	C534.266113,825.711487 499.861572,849.925598 454.730774,857.762329 
	C417.937561,864.151306 383.138977,856.975464 351.783325,835.973572 
	C338.638580,827.169250 327.979767,815.777893 319.002625,802.446838 
	C327.826782,796.063232 336.453949,789.822083 345.369141,783.365417 
z"/>
</svg>