<svg version="1.1" id="Layer_1" xmlns="http://www.w3.org/2000/svg" xmlns:xlink="http://www.w3.org/1999/xlink" x="0px" y="0px"
	 width="100%" viewBox="0 0 1000 1000" enable-background="new 0 0 1000 1000" xml:space="preserve">
<path fill="#2A3E52" opacity="1.000000" stroke="none" 
	d="
M531.000000,1001.000000 
	C354.000000,1001.000000 177.500000,1001.000000 1.000000,1001.000000 
	C1.000000,667.666687 1.000000,334.333344 1.000000,1.000000 
	C334.333344,1.000000 667.666687,1.000000 1001.000000,1.000000 
	C1001.000000,334.333344 1001.000000,667.666687 1001.000000,1001.000000 
	C844.500000,1001.000000 688.000000,1001.000000 531.000000,1001.000000 
M720.477173,218.399689 
	C719.690979,218.554199 718.904846,218.708710 717.166626,218.881424 
	C684.374878,218.844818 651.583130,218.808212 618.266418,218.330414 
	C611.534851,216.404861 604.833313,215.844543 597.250366,218.813995 
	C594.918823,218.860458 592.569885,219.110443 590.259338,218.911987 
	C585.089478,218.467941 581.377136,220.114731 578.791260,224.924896 
	C574.616455,232.690964 569.967834,240.201355 565.567627,247.847519 
	C550.123657,274.684113 534.745056,301.558563 519.239502,328.359528 
	C515.005310,335.678223 510.413086,342.789795 505.643097,349.399078 
	C498.747406,338.239960 491.727966,327.155029 484.981323,315.906525 
	C470.097717,291.091583 455.417938,266.154266 440.508850,241.354706 
	C436.047211,233.933289 429.789764,228.259262 421.897827,224.505234 
	C418.557129,222.916122 415.479675,222.799744 412.487396,225.544510 
	C409.739655,220.059219 405.226990,218.800873 399.309174,218.839752 
	C364.323120,219.069504 329.334808,218.927292 294.347321,218.970871 
	C286.021545,218.981247 277.696075,219.222870 268.646088,219.166733 
	C267.161682,219.040115 265.677338,218.803497 264.192871,218.802811 
	C217.317886,218.781204 170.442917,218.781418 123.567932,218.786972 
	C122.408272,218.787109 121.002350,218.516907 120.176125,219.068756 
	C119.631584,219.432449 119.921539,221.045547 120.016640,222.781860 
	C124.057648,230.104889 128.098648,237.427917 131.611542,244.991302 
	C128.478088,245.892212 127.785065,247.912399 129.033340,250.749313 
	C129.838226,252.578506 130.628143,254.427078 131.604431,256.166138 
	C152.236816,292.918091 172.728821,329.750305 193.597504,366.367767 
	C211.993927,398.647247 230.843033,430.668488 249.443253,462.832123 
	C266.376709,492.113556 283.236786,521.437439 300.144379,550.733887 
	C307.805603,564.008789 315.532257,577.246155 323.171051,590.533875 
	C326.350830,596.065186 326.035980,597.822510 321.745636,600.577271 
	C315.535156,604.565002 315.415283,605.593018 319.236023,612.078979 
	C327.171539,625.550171 335.011841,639.077942 342.812042,652.628113 
	C350.620819,666.193237 358.248322,679.863159 366.111938,693.396118 
	C373.638245,706.348450 381.517273,719.096863 388.972961,732.088989 
	C403.636963,757.642151 418.036530,783.347107 432.693665,808.904297 
	C445.359375,830.989014 458.331970,852.898010 470.970490,874.998108 
	C478.033173,887.348145 484.622070,899.604797 499.452667,904.951111 
	C510.637878,908.983276 520.527954,909.222717 530.721680,902.440552 
	C536.757019,898.425049 542.801941,894.849243 546.003113,887.965637 
	C546.451050,887.002380 547.584961,886.226929 548.572510,885.665894 
	C560.576111,878.846436 568.565857,868.039856 575.656555,856.828186 
	C585.250916,841.657593 593.771057,825.805908 602.702332,810.217896 
	C616.756897,785.687866 630.777222,761.138306 644.794678,736.587036 
	C647.671631,731.548218 650.379028,726.410889 653.325195,721.413635 
	C661.259033,707.956055 669.411560,694.625854 677.228210,681.101257 
	C684.798828,668.002380 691.934204,654.652283 699.486145,641.542297 
	C710.431702,622.541321 721.654358,603.700073 732.615051,584.707703 
	C739.752075,572.340820 746.560730,559.784851 753.652161,547.391235 
	C759.757935,536.720154 766.089661,526.178711 772.254089,515.540894 
	C775.330200,510.232483 778.126160,504.759094 781.278870,499.498199 
	C786.407166,490.940948 791.959961,482.631714 796.912842,473.976990 
	C807.226379,455.954926 817.116394,437.690186 827.457886,419.684479 
	C837.630310,401.973022 848.236206,384.511047 858.486023,366.843384 
	C869.087463,348.569397 879.523254,330.198944 889.964355,311.832520 
	C895.137085,302.733673 900.299744,293.746765 902.149902,283.069885 
	C903.717285,274.024811 904.484985,264.539337 910.199646,256.619141 
	C910.954590,255.572769 910.755615,253.710999 910.708984,252.236023 
	C910.536133,246.766296 910.128662,241.302765 910.014526,235.832626 
	C909.641418,217.943375 897.411194,208.518250 882.204773,206.510605 
	C869.730713,204.863693 856.952454,205.651337 844.333313,204.932617 
	C833.928955,204.340042 827.722046,209.381607 823.099548,218.671600 
	C811.644897,218.715973 800.190308,218.760910 788.735657,218.804596 
	C767.156311,218.886887 745.576965,218.968445 723.292908,218.945374 
	C722.588318,219.035355 721.883667,219.125320 720.973999,218.936722 
	C720.973999,218.936722 720.754944,218.668991 720.477173,218.399689 
z"/>
<path fill="#41B883" opacity="1.000000" stroke="none" 
	d="
M132.139648,244.750946 
	C128.098648,237.427917 124.057648,230.104889 120.253387,222.223480 
	C123.549667,221.106949 126.607994,220.070435 129.668900,220.062759 
	C172.149124,219.956177 214.630386,220.106155 257.109528,219.866089 
	C263.474365,219.830124 267.180511,222.111176 270.235229,227.529495 
	C283.971466,251.894333 297.948792,276.124176 311.958618,300.333588 
	C332.058289,335.066467 352.327484,369.701324 372.402924,404.448151 
	C393.561920,441.070496 414.589569,477.768738 435.653442,514.445984 
	C453.978333,546.353943 472.278656,578.276062 490.576904,610.199280 
	C493.410034,615.142029 495.960541,615.103699 499.230927,609.752563 
	C503.357117,602.916992 507.317230,596.367859 511.173981,589.758484 
	C525.605652,565.026672 540.096497,540.328796 554.390076,515.517212 
	C571.259155,486.234863 587.849365,456.791748 604.736816,427.520050 
	C626.953491,389.010986 649.364685,350.614166 671.649109,312.144135 
	C687.759216,284.333038 703.831482,256.499786 719.823975,228.621033 
	C721.545349,225.620193 722.621948,222.249466 723.997620,219.050323 
	C745.576965,218.968445 767.156311,218.886887 788.735657,218.804596 
	C800.190308,218.760910 811.644897,218.715973 824.024536,218.665390 
	C840.444702,218.659180 855.939941,218.659180 872.424988,218.659180 
	C870.399536,222.663483 869.078064,225.276031 867.548706,228.152374 
	C866.903931,229.125443 866.449219,229.824356 866.032959,230.545486 
	C825.950012,299.988708 785.883362,369.441284 745.785706,438.875946 
	C712.512207,496.493622 679.178589,554.076538 645.915161,611.700012 
	C606.159912,680.569458 566.428162,749.452576 526.738342,818.359741 
	C516.948853,835.355713 507.361115,852.467834 497.441895,869.743713 
	C494.761230,873.203308 493.919525,870.740234 492.794983,868.787476 
	C485.161041,855.530640 477.477570,842.302307 469.834442,829.050781 
	C435.113373,768.851990 400.481964,708.601379 365.655853,648.463440 
	C342.306091,608.142883 318.597473,568.030212 295.215576,527.728088 
	C280.255615,501.942474 265.694763,475.925568 250.781204,450.112732 
	C232.083328,417.749847 213.147629,385.524414 194.428467,353.173767 
	C180.843307,329.695740 167.455963,306.103302 153.955170,282.576355 
	C146.710831,269.952087 139.413223,257.358429 132.139648,244.750946 
z"/>
<path fill="#27394B" opacity="1.000000" stroke="none" 
	d="
M131.875595,244.871124 
	C139.413223,257.358429 146.710831,269.952087 153.955170,282.576355 
	C167.455963,306.103302 180.843307,329.695740 194.428467,353.173767 
	C213.147629,385.524414 232.083328,417.749847 250.781204,450.112732 
	C265.694763,475.925568 280.255615,501.942474 295.215576,527.728088 
	C318.597473,568.030212 342.306091,608.142883 365.655853,648.463440 
	C400.481964,708.601379 435.113373,768.851990 469.834442,829.050781 
	C477.477570,842.302307 485.161041,855.530640 492.794983,868.787476 
	C493.919525,870.740234 494.761230,873.203308 497.578522,870.118042 
	C501.608032,880.006897 509.409454,882.748718 518.122437,877.100159 
	C520.579712,875.507080 522.914062,873.391052 524.609253,871.018005 
	C529.737183,863.840027 534.914673,856.647888 539.378113,849.052856 
	C562.836853,809.135376 586.203796,769.162781 609.373108,729.076721 
	C649.296814,660.003357 689.010559,590.808655 728.892395,521.711060 
	C752.119873,481.468079 775.580994,441.359924 798.793213,401.108154 
	C819.844360,364.603729 840.892944,328.095001 861.541748,291.362854 
	C869.119751,277.882416 876.233887,264.048615 882.301819,249.838928 
	C887.965515,236.575653 879.935425,227.293655 867.756592,227.888596 
	C869.078064,225.276031 870.399536,222.663483 872.424988,218.659180 
	C855.939941,218.659180 840.444702,218.659180 824.487854,218.580322 
	C827.722046,209.381607 833.928955,204.340042 844.333313,204.932617 
	C856.952454,205.651337 869.730713,204.863693 882.204773,206.510605 
	C897.411194,208.518250 909.641418,217.943375 910.014526,235.832626 
	C910.128662,241.302765 910.536133,246.766296 910.708984,252.236023 
	C910.755615,253.710999 910.954590,255.572769 910.199646,256.619141 
	C904.484985,264.539337 903.717285,274.024811 902.149902,283.069885 
	C900.299744,293.746765 895.137085,302.733673 889.964355,311.832520 
	C879.523254,330.198944 869.087463,348.569397 858.486023,366.843384 
	C848.236206,384.511047 837.630310,401.973022 827.457886,419.684479 
	C817.116394,437.690186 807.226379,455.954926 796.912842,473.976990 
	C791.959961,482.631714 786.407166,490.940948 781.278870,499.498199 
	C778.126160,504.759094 775.330200,510.232483 772.254089,515.540894 
	C766.089661,526.178711 759.757935,536.720154 753.652161,547.391235 
	C746.560730,559.784851 739.752075,572.340820 732.615051,584.707703 
	C721.654358,603.700073 710.431702,622.541321 699.486145,641.542297 
	C691.934204,654.652283 684.798828,668.002380 677.228210,681.101257 
	C669.411560,694.625854 661.259033,707.956055 653.325195,721.413635 
	C650.379028,726.410889 647.671631,731.548218 644.794678,736.587036 
	C630.777222,761.138306 616.756897,785.687866 602.702332,810.217896 
	C593.771057,825.805908 585.250916,841.657593 575.656555,856.828186 
	C568.565857,868.039856 560.576111,878.846436 548.572510,885.665894 
	C547.584961,886.226929 546.451050,887.002380 546.003113,887.965637 
	C542.801941,894.849243 536.757019,898.425049 530.721680,902.440552 
	C520.527954,909.222717 510.637878,908.983276 499.452667,904.951111 
	C484.622070,899.604797 478.033173,887.348145 470.970490,874.998108 
	C458.331970,852.898010 445.359375,830.989014 432.693665,808.904297 
	C418.036530,783.347107 403.636963,757.642151 388.972961,732.088989 
	C381.517273,719.096863 373.638245,706.348450 366.111938,693.396118 
	C358.248322,679.863159 350.620819,666.193237 342.812042,652.628113 
	C335.011841,639.077942 327.171539,625.550171 319.236023,612.078979 
	C315.415283,605.593018 315.535156,604.565002 321.745636,600.577271 
	C326.035980,597.822510 326.350830,596.065186 323.171051,590.533875 
	C315.532257,577.246155 307.805603,564.008789 300.144379,550.733887 
	C283.236786,521.437439 266.376709,492.113556 249.443253,462.832123 
	C230.843033,430.668488 211.993927,398.647247 193.597504,366.367767 
	C172.728821,329.750305 152.236816,292.918091 131.604431,256.166138 
	C130.628143,254.427078 129.838226,252.578506 129.033340,250.749313 
	C127.785065,247.912399 128.478088,245.892212 131.875595,244.871124 
z"/>
<path fill="#33465D" opacity="1.000000" stroke="none" 
	d="
M505.985168,349.996460 
	C510.413086,342.789795 515.005310,335.678223 519.239502,328.359528 
	C534.745056,301.558563 550.123657,274.684113 565.567627,247.847519 
	C569.967834,240.201355 574.616455,232.690964 578.791260,224.924896 
	C581.377136,220.114731 585.089478,218.467941 590.259338,218.911987 
	C592.569885,219.110443 594.918823,218.860458 598.172729,218.816406 
	C605.660583,218.803085 612.225952,218.787354 618.791382,218.771606 
	C651.583130,218.808212 684.374878,218.844818 717.972534,218.867432 
	C719.437256,218.791962 720.096130,218.730469 720.754944,218.668976 
	C720.754944,218.668991 720.973999,218.936722 720.995850,219.416809 
	C719.487732,222.664673 718.001587,225.457809 716.421326,228.196579 
	C651.620361,340.499146 586.797241,452.788940 522.019409,565.104858 
	C513.449524,579.963867 505.105530,594.953125 496.310516,609.932617 
	C494.395325,608.226929 492.462982,606.680786 491.309723,604.684631 
	C424.484467,489.018524 357.712402,373.321655 290.972931,257.606018 
	C283.657745,244.922684 276.565887,232.110535 269.370453,219.358124 
	C277.696075,219.222870 286.021545,218.981247 294.347321,218.970871 
	C329.334808,218.927292 364.323120,219.069504 399.309174,218.839752 
	C405.226990,218.800873 409.739655,220.059219 412.858215,226.110382 
	C425.657410,248.828949 437.958862,271.054047 450.548737,293.114594 
	C463.889069,316.490173 477.503540,339.709290 490.872681,363.287964 
	C490.498016,364.386108 490.248993,365.193054 489.675598,365.883118 
	C488.183807,364.643127 486.703278,363.706543 485.903778,362.364288 
	C482.596954,356.812531 479.509399,351.130524 476.317322,345.509979 
	C467.114410,329.305573 457.866547,313.126617 448.700409,296.901428 
	C441.355988,283.900940 434.254120,270.761108 426.760742,257.847900 
	C421.762787,249.235016 415.430969,241.301041 411.250397,232.338257 
	C407.744354,224.821594 403.023590,222.815964 395.291138,222.863937 
	C356.796143,223.102798 318.298309,222.878632 279.801422,222.852295 
	C278.586395,222.851456 277.371094,223.229843 275.483978,223.542923 
	C276.553680,225.792236 277.213104,227.457657 278.096008,228.994720 
	C303.152496,272.615509 328.192108,316.246094 353.318176,359.826843 
	C377.944702,402.541168 402.679932,445.192841 427.335724,487.890320 
	C448.330353,524.247498 469.257416,560.643799 490.305511,596.969971 
	C491.558594,599.132568 493.622864,600.825195 495.309631,602.736511 
	C496.981293,600.739624 498.979980,598.933167 500.271698,596.715027 
	C508.902802,581.893616 517.347351,566.963867 525.920593,552.108582 
	C540.156982,527.440491 554.481995,502.823486 568.699707,478.144653 
	C581.922974,455.191986 594.996460,432.152893 608.241211,409.212646 
	C626.148804,378.196075 644.173767,347.247284 662.116760,316.251099 
	C676.557556,291.304810 690.967651,266.340668 705.354065,241.362961 
	C708.715271,235.527206 711.925598,229.604553 715.609314,222.997345 
	C710.684204,222.997345 706.936951,222.997208 703.189636,222.997360 
	C666.858215,222.998779 630.526245,223.092712 594.195801,222.909271 
	C588.248474,222.879257 584.045410,224.567368 581.014954,229.866394 
	C572.594482,244.590317 563.950317,259.186890 555.331787,273.796692 
	C552.638306,278.362579 549.577759,282.716461 546.980469,287.333466 
	C542.586365,295.144470 538.540833,303.151642 534.140259,310.958832 
	C528.762634,320.499664 523.164673,329.916229 517.672058,339.392395 
	C513.259338,347.005585 509.105835,354.784180 504.359070,362.182526 
	C501.816193,366.145813 498.263611,369.461243 494.428741,373.928772 
	C492.650116,370.744507 491.325073,368.372253 490.339203,365.998444 
	C491.131012,365.994446 491.583618,365.992004 492.302368,366.133667 
	C494.356384,365.777832 497.016632,365.846771 497.778778,364.677979 
	C500.834045,359.992676 503.300812,354.923615 505.985168,349.996460 
z"/>
<path fill="#243547" opacity="1.000000" stroke="none" 
	d="
M505.814148,349.697754 
	C503.300812,354.923615 500.834045,359.992676 497.778778,364.677979 
	C497.016632,365.846771 494.356384,365.777832 492.235718,365.822021 
	C491.601318,364.576447 491.299805,363.786621 490.998291,362.996765 
	C477.503540,339.709290 463.889069,316.490173 450.548737,293.114594 
	C437.958862,271.054047 425.657410,248.828949 413.095917,226.349609 
	C415.479675,222.799744 418.557129,222.916122 421.897827,224.505234 
	C429.789764,228.259262 436.047211,233.933289 440.508850,241.354706 
	C455.417938,266.154266 470.097717,291.091583 484.981323,315.906525 
	C491.727966,327.155029 498.747406,338.239960 505.814148,349.697754 
z"/>
<path fill="#41BC84" opacity="1.000000" stroke="none" 
	d="
M269.008270,219.262421 
	C276.565887,232.110535 283.657745,244.922684 290.972931,257.606018 
	C357.712402,373.321655 424.484467,489.018524 491.309723,604.684631 
	C492.462982,606.680786 494.395325,608.226929 496.703918,609.954224 
	C497.968292,609.953979 498.492828,609.982666 499.017395,610.011353 
	C495.960541,615.103699 493.410034,615.142029 490.576904,610.199280 
	C472.278656,578.276062 453.978333,546.353943 435.653442,514.445984 
	C414.589569,477.768738 393.561920,441.070496 372.402924,404.448151 
	C352.327484,369.701324 332.058289,335.066467 311.958618,300.333588 
	C297.948792,276.124176 283.971466,251.894333 270.235229,227.529495 
	C267.180511,222.111176 263.474365,219.830124 257.109528,219.866089 
	C214.630386,220.106155 172.149124,219.956177 129.668900,220.062759 
	C126.607994,220.070435 123.549667,221.106949 120.163986,221.882141 
	C119.921539,221.045547 119.631584,219.432449 120.176125,219.068756 
	C121.002350,218.516907 122.408272,218.787109 123.567932,218.786972 
	C170.442917,218.781418 217.317886,218.781204 264.192871,218.802811 
	C265.677338,218.803497 267.161682,219.040115 269.008270,219.262421 
z"/>
<path fill="#41BC84" opacity="1.000000" stroke="none" 
	d="
M499.230927,609.752563 
	C498.492828,609.982666 497.968292,609.953979 497.050323,609.903748 
	C505.105530,594.953125 513.449524,579.963867 522.019409,565.104858 
	C586.797241,452.788940 651.620361,340.499146 716.421326,228.196579 
	C718.001587,225.457809 719.487732,222.664673 721.098389,219.556091 
	C721.883667,219.125320 722.588318,219.035355 723.645264,218.997849 
	C722.621948,222.249466 721.545349,225.620193 719.823975,228.621033 
	C703.831482,256.499786 687.759216,284.333038 671.649109,312.144135 
	C649.364685,350.614166 626.953491,389.010986 604.736816,427.520050 
	C587.849365,456.791748 571.259155,486.234863 554.390076,515.517212 
	C540.096497,540.328796 525.605652,565.026672 511.173981,589.758484 
	C507.317230,596.367859 503.357117,602.916992 499.230927,609.752563 
z"/>
<path fill="#27394B" opacity="1.000000" stroke="none" 
	d="
M618.528931,218.551025 
	C612.225952,218.787354 605.660583,218.803085 598.651855,218.795288 
	C604.833313,215.844543 611.534851,216.404861 618.528931,218.551025 
z"/>
<path fill="#27394B" opacity="1.000000" stroke="none" 
	d="
M720.616089,218.534332 
	C720.096130,218.730469 719.437256,218.791962 718.448547,218.858337 
	C718.904846,218.708710 719.690979,218.554199 720.616089,218.534332 
z"/>
<path fill="#1F2F3D" opacity="1.000000" stroke="none" 
	d="
M867.548706,228.152374 
	C879.935425,227.293655 887.965515,236.575653 882.301819,249.838928 
	C876.233887,264.048615 869.119751,277.882416 861.541748,291.362854 
	C840.892944,328.095001 819.844360,364.603729 798.793213,401.108154 
	C775.580994,441.359924 752.119873,481.468079 728.892395,521.711060 
	C689.010559,590.808655 649.296814,660.003357 609.373108,729.076721 
	C586.203796,769.162781 562.836853,809.135376 539.378113,849.052856 
	C534.914673,856.647888 529.737183,863.840027 524.609253,871.018005 
	C522.914062,873.391052 520.579712,875.507080 518.122437,877.100159 
	C509.409454,882.748718 501.608032,880.006897 497.817261,869.900879 
	C507.361115,852.467834 516.948853,835.355713 526.738342,818.359741 
	C566.428162,749.452576 606.159912,680.569458 645.915161,611.700012 
	C679.178589,554.076538 712.512207,496.493622 745.785706,438.875946 
	C785.883362,369.441284 825.950012,299.988708 866.032959,230.545486 
	C866.449219,229.824356 866.903931,229.125443 867.548706,228.152374 
z"/>
<path fill="#34495E" opacity="1.000000" stroke="none" 
	d="
M489.675598,365.883118 
	C491.325073,368.372253 492.650116,370.744507 494.428741,373.928772 
	C498.263611,369.461243 501.816193,366.145813 504.359070,362.182526 
	C509.105835,354.784180 513.259338,347.005585 517.672058,339.392395 
	C523.164673,329.916229 528.762634,320.499664 534.140259,310.958832 
	C538.540833,303.151642 542.586365,295.144470 546.980469,287.333466 
	C549.577759,282.716461 552.638306,278.362579 555.331787,273.796692 
	C563.950317,259.186890 572.594482,244.590317 581.014954,229.866394 
	C584.045410,224.567368 588.248474,222.879257 594.195801,222.909271 
	C630.526245,223.092712 666.858215,222.998779 703.189636,222.997360 
	C706.936951,222.997208 710.684204,222.997345 715.609314,222.997345 
	C711.925598,229.604553 708.715271,235.527206 705.354065,241.362961 
	C690.967651,266.340668 676.557556,291.304810 662.116760,316.251099 
	C644.173767,347.247284 626.148804,378.196075 608.241211,409.212646 
	C594.996460,432.152893 581.922974,455.191986 568.699707,478.144653 
	C554.481995,502.823486 540.156982,527.440491 525.920593,552.108582 
	C517.347351,566.963867 508.902802,581.893616 500.271698,596.715027 
	C498.979980,598.933167 496.981293,600.739624 495.309631,602.736511 
	C493.622864,600.825195 491.558594,599.132568 490.305511,596.969971 
	C469.257416,560.643799 448.330353,524.247498 427.335724,487.890320 
	C402.679932,445.192841 377.944702,402.541168 353.318176,359.826843 
	C328.192108,316.246094 303.152496,272.615509 278.096008,228.994720 
	C277.213104,227.457657 276.553680,225.792236 275.483978,223.542923 
	C277.371094,223.229843 278.586395,222.851456 279.801422,222.852295 
	C318.298309,222.878632 356.796143,223.102798 395.291138,222.863937 
	C403.023590,222.815964 407.744354,224.821594 411.250397,232.338257 
	C415.430969,241.301041 421.762787,249.235016 426.760742,257.847900 
	C434.254120,270.761108 441.355988,283.900940 448.700409,296.901428 
	C457.866547,313.126617 467.114410,329.305573 476.317322,345.509979 
	C479.509399,351.130524 482.596954,356.812531 485.903778,362.364288 
	C486.703278,363.706543 488.183807,364.643127 489.675598,365.883118 
z"/>
<path fill="#34495E" opacity="1.000000" stroke="none" 
	d="
M490.872681,363.287964 
	C491.299805,363.786621 491.601318,364.576447 491.969543,365.677917 
	C491.583618,365.992004 491.131012,365.994446 490.339172,365.998444 
	C490.248993,365.193054 490.498016,364.386108 490.872681,363.287964 
z"/>
</svg>