<?xml version="1.0" encoding="UTF-8"?>
<svg xmlns="http://www.w3.org/2000/svg" xmlns:xlink="http://www.w3.org/1999/xlink" width="50px" height="50px" viewBox="0 0 50 50" version="1.1">
<g id="surface1">
<path style=" stroke:none;fill-rule:nonzero;fill:rgb(16.470588%,24.313725%,32.156863%);fill-opacity:1;" d="M 26.550781 50.050781 C 17.699219 50.050781 8.875 50.050781 0.0507812 50.050781 C 0.0507812 33.382812 0.0507812 16.714844 0.0507812 0.0507812 C 16.714844 0.0507812 33.382812 0.0507812 50.050781 0.0507812 C 50.050781 16.714844 50.050781 33.382812 50.050781 50.050781 C 42.226562 50.050781 34.398438 50.050781 26.550781 50.050781 M 36.023438 10.921875 C 35.984375 10.925781 35.945312 10.933594 35.859375 10.945312 C 34.21875 10.941406 32.578125 10.941406 30.914062 10.917969 C 30.578125 10.820312 30.242188 10.792969 29.863281 10.941406 C 29.746094 10.941406 29.628906 10.957031 29.511719 10.945312 C 29.253906 10.921875 29.070312 11.003906 28.941406 11.246094 C 28.730469 11.632812 28.5 12.011719 28.277344 12.390625 C 27.507812 13.734375 26.738281 15.078125 25.960938 16.417969 C 25.75 16.785156 25.519531 17.140625 25.28125 17.46875 C 24.9375 16.910156 24.585938 16.359375 24.25 15.796875 C 23.503906 14.554688 22.769531 13.308594 22.027344 12.066406 C 21.800781 11.695312 21.488281 11.414062 21.09375 11.226562 C 20.929688 11.144531 20.773438 11.140625 20.625 11.277344 C 20.488281 11.003906 20.261719 10.941406 19.964844 10.941406 C 18.214844 10.953125 16.464844 10.945312 14.71875 10.949219 C 14.300781 10.949219 13.886719 10.960938 13.433594 10.957031 C 13.359375 10.953125 13.285156 10.941406 13.210938 10.941406 C 10.867188 10.9375 8.523438 10.9375 6.179688 10.9375 C 6.121094 10.9375 6.050781 10.925781 6.007812 10.953125 C 5.980469 10.972656 5.996094 11.050781 6 11.140625 C 6.203125 11.503906 6.40625 11.871094 6.582031 12.25 C 6.425781 12.292969 6.390625 12.394531 6.453125 12.539062 C 6.492188 12.628906 6.53125 12.722656 6.582031 12.808594 C 7.613281 14.644531 8.636719 16.488281 9.679688 18.320312 C 10.601562 19.933594 11.542969 21.535156 12.472656 23.140625 C 13.320312 24.605469 14.160156 26.070312 15.007812 27.535156 C 15.390625 28.199219 15.777344 28.863281 16.160156 29.527344 C 16.316406 29.804688 16.300781 29.890625 16.085938 30.027344 C 15.777344 30.226562 15.769531 30.28125 15.960938 30.605469 C 16.359375 31.277344 16.75 31.953125 17.140625 32.632812 C 17.53125 33.308594 17.914062 33.992188 18.304688 34.667969 C 18.683594 35.316406 19.074219 35.953125 19.449219 36.605469 C 20.183594 37.882812 20.902344 39.167969 21.632812 40.445312 C 22.269531 41.550781 22.917969 42.644531 23.546875 43.75 C 23.902344 44.367188 24.230469 44.980469 24.972656 45.246094 C 25.53125 45.449219 26.027344 45.460938 26.535156 45.121094 C 26.835938 44.921875 27.140625 44.742188 27.300781 44.398438 C 27.324219 44.351562 27.378906 44.3125 27.429688 44.285156 C 28.027344 43.941406 28.429688 43.402344 28.78125 42.839844 C 29.261719 42.082031 29.6875 41.289062 30.136719 40.511719 C 30.835938 39.285156 31.539062 38.058594 32.238281 36.828125 C 32.382812 36.578125 32.519531 36.320312 32.667969 36.070312 C 33.0625 35.398438 33.46875 34.730469 33.863281 34.054688 C 34.238281 33.398438 34.597656 32.734375 34.972656 32.078125 C 35.523438 31.128906 36.082031 30.183594 36.628906 29.234375 C 36.988281 28.617188 37.328125 27.988281 37.683594 27.371094 C 37.988281 26.835938 38.304688 26.308594 38.613281 25.777344 C 38.765625 25.511719 38.90625 25.238281 39.0625 24.976562 C 39.320312 24.546875 39.597656 24.132812 39.84375 23.699219 C 40.359375 22.796875 40.855469 21.882812 41.371094 20.984375 C 41.882812 20.097656 42.410156 19.226562 42.925781 18.34375 C 43.453125 17.429688 43.976562 16.511719 44.5 15.589844 C 44.757812 15.136719 45.015625 14.6875 45.109375 14.152344 C 45.1875 13.703125 45.222656 13.226562 45.511719 12.832031 C 45.546875 12.777344 45.539062 12.6875 45.535156 12.613281 C 45.527344 12.339844 45.507812 12.066406 45.5 11.792969 C 45.480469 10.898438 44.871094 10.425781 44.109375 10.324219 C 43.488281 10.242188 42.847656 10.28125 42.214844 10.246094 C 41.695312 10.21875 41.386719 10.46875 41.15625 10.933594 C 40.582031 10.9375 40.007812 10.9375 39.4375 10.941406 C 38.359375 10.945312 37.277344 10.949219 36.164062 10.949219 C 36.128906 10.953125 36.09375 10.957031 36.046875 10.945312 C 36.046875 10.945312 36.039062 10.933594 36.023438 10.921875 Z M 36.023438 10.921875 "/>
<path style=" stroke:none;fill-rule:nonzero;fill:rgb(25.490196%,72.156863%,51.372549%);fill-opacity:1;" d="M 6.605469 12.238281 C 6.40625 11.871094 6.203125 11.503906 6.011719 11.109375 C 6.175781 11.054688 6.332031 11.003906 6.484375 11.003906 C 8.609375 10.996094 10.730469 11.003906 12.855469 10.992188 C 13.171875 10.992188 13.359375 11.105469 13.511719 11.375 C 14.199219 12.59375 14.898438 13.804688 15.597656 15.015625 C 16.601562 16.753906 17.617188 18.484375 18.621094 20.222656 C 19.679688 22.054688 20.730469 23.886719 21.78125 25.722656 C 22.699219 27.316406 23.613281 28.914062 24.527344 30.511719 C 24.671875 30.757812 24.796875 30.753906 24.960938 30.488281 C 25.167969 30.144531 25.367188 29.820312 25.558594 29.488281 C 26.28125 28.25 27.003906 27.015625 27.71875 25.777344 C 28.5625 24.3125 29.390625 22.839844 30.238281 21.375 C 31.347656 19.449219 32.46875 17.53125 33.582031 15.605469 C 34.386719 14.214844 35.191406 12.824219 35.992188 11.429688 C 36.078125 11.28125 36.132812 11.113281 36.199219 10.953125 C 37.277344 10.949219 38.359375 10.945312 39.4375 10.941406 C 40.007812 10.9375 40.582031 10.9375 41.203125 10.933594 C 42.023438 10.933594 42.796875 10.933594 43.621094 10.933594 C 43.519531 11.132812 43.453125 11.265625 43.378906 11.40625 C 43.34375 11.457031 43.324219 11.492188 43.300781 11.527344 C 41.296875 15 39.292969 18.472656 37.289062 21.945312 C 35.625 24.824219 33.957031 27.703125 32.296875 30.585938 C 30.308594 34.027344 28.320312 37.472656 26.335938 40.917969 C 25.847656 41.769531 25.367188 42.625 24.871094 43.488281 C 24.738281 43.660156 24.695312 43.535156 24.640625 43.4375 C 24.257812 42.777344 23.875 42.113281 23.492188 41.453125 C 21.753906 38.441406 20.023438 35.429688 18.28125 32.421875 C 17.117188 30.40625 15.929688 28.402344 14.761719 26.386719 C 14.011719 25.097656 13.285156 23.796875 12.539062 22.503906 C 11.605469 20.886719 10.65625 19.277344 9.722656 17.660156 C 9.042969 16.484375 8.371094 15.304688 7.699219 14.128906 C 7.335938 13.496094 6.96875 12.867188 6.605469 12.238281 Z M 6.605469 12.238281 "/>
<path style=" stroke:none;fill-rule:nonzero;fill:rgb(15.294118%,22.352941%,29.411765%);fill-opacity:1;" d="M 6.59375 12.242188 C 6.96875 12.867188 7.335938 13.496094 7.699219 14.128906 C 8.371094 15.304688 9.042969 16.484375 9.722656 17.660156 C 10.65625 19.277344 11.605469 20.886719 12.539062 22.503906 C 13.285156 23.796875 14.011719 25.097656 14.761719 26.386719 C 15.929688 28.402344 17.117188 30.40625 18.28125 32.421875 C 20.023438 35.429688 21.753906 38.441406 23.492188 41.453125 C 23.875 42.113281 24.257812 42.777344 24.640625 43.4375 C 24.695312 43.535156 24.738281 43.660156 24.878906 43.507812 C 25.082031 44 25.46875 44.136719 25.90625 43.855469 C 26.027344 43.773438 26.144531 43.667969 26.230469 43.550781 C 26.488281 43.191406 26.746094 42.832031 26.96875 42.453125 C 28.140625 40.457031 29.308594 38.457031 30.46875 36.453125 C 32.464844 33 34.449219 29.539062 36.445312 26.085938 C 37.605469 24.074219 38.777344 22.066406 39.941406 20.054688 C 40.992188 18.230469 42.042969 16.40625 43.078125 14.566406 C 43.457031 13.894531 43.8125 13.203125 44.113281 12.492188 C 44.398438 11.828125 43.996094 11.363281 43.386719 11.394531 C 43.453125 11.265625 43.519531 11.132812 43.621094 10.933594 C 42.796875 10.933594 42.023438 10.933594 41.222656 10.929688 C 41.386719 10.46875 41.695312 10.21875 42.214844 10.246094 C 42.847656 10.28125 43.488281 10.242188 44.109375 10.324219 C 44.871094 10.425781 45.480469 10.898438 45.5 11.792969 C 45.507812 12.066406 45.527344 12.339844 45.535156 12.613281 C 45.539062 12.6875 45.546875 12.777344 45.511719 12.832031 C 45.222656 13.226562 45.1875 13.703125 45.109375 14.152344 C 45.015625 14.6875 44.757812 15.136719 44.5 15.589844 C 43.976562 16.511719 43.453125 17.429688 42.925781 18.34375 C 42.410156 19.226562 41.882812 20.097656 41.371094 20.984375 C 40.855469 21.882812 40.359375 22.796875 39.84375 23.699219 C 39.597656 24.132812 39.320312 24.546875 39.0625 24.976562 C 38.90625 25.238281 38.765625 25.511719 38.613281 25.777344 C 38.304688 26.308594 37.988281 26.835938 37.683594 27.371094 C 37.328125 27.988281 36.988281 28.617188 36.628906 29.234375 C 36.082031 30.183594 35.523438 31.128906 34.972656 32.078125 C 34.597656 32.734375 34.238281 33.398438 33.863281 34.054688 C 33.46875 34.730469 33.0625 35.398438 32.667969 36.070312 C 32.519531 36.320312 32.382812 36.578125 32.238281 36.828125 C 31.539062 38.058594 30.835938 39.285156 30.136719 40.511719 C 29.6875 41.289062 29.261719 42.082031 28.78125 42.839844 C 28.429688 43.402344 28.027344 43.941406 27.429688 44.285156 C 27.378906 44.3125 27.324219 44.351562 27.300781 44.398438 C 27.140625 44.742188 26.835938 44.921875 26.535156 45.121094 C 26.027344 45.460938 25.53125 45.449219 24.972656 45.246094 C 24.230469 44.980469 23.902344 44.367188 23.546875 43.75 C 22.917969 42.644531 22.269531 41.550781 21.632812 40.445312 C 20.902344 39.167969 20.183594 37.882812 19.449219 36.605469 C 19.074219 35.953125 18.683594 35.316406 18.304688 34.667969 C 17.914062 33.992188 17.53125 33.308594 17.140625 32.632812 C 16.75 31.953125 16.359375 31.277344 15.960938 30.605469 C 15.769531 30.28125 15.777344 30.226562 16.085938 30.027344 C 16.300781 29.890625 16.316406 29.804688 16.160156 29.527344 C 15.777344 28.863281 15.390625 28.199219 15.007812 27.535156 C 14.160156 26.070312 13.320312 24.605469 12.472656 23.140625 C 11.542969 21.535156 10.601562 19.933594 9.679688 18.320312 C 8.636719 16.488281 7.613281 14.644531 6.582031 12.808594 C 6.53125 12.722656 6.492188 12.628906 6.453125 12.539062 C 6.390625 12.394531 6.425781 12.292969 6.59375 12.242188 Z M 6.59375 12.242188 "/>
<path style=" stroke:none;fill-rule:nonzero;fill:rgb(20%,27.45098%,36.470588%);fill-opacity:1;" d="M 25.300781 17.5 C 25.519531 17.140625 25.75 16.785156 25.960938 16.417969 C 26.738281 15.078125 27.507812 13.734375 28.277344 12.390625 C 28.5 12.011719 28.730469 11.632812 28.941406 11.246094 C 29.070312 11.003906 29.253906 10.921875 29.511719 10.945312 C 29.628906 10.957031 29.746094 10.941406 29.910156 10.941406 C 30.28125 10.941406 30.609375 10.9375 30.941406 10.9375 C 32.578125 10.941406 34.21875 10.941406 35.898438 10.945312 C 35.972656 10.941406 36.003906 10.9375 36.039062 10.933594 C 36.039062 10.933594 36.046875 10.945312 36.050781 10.972656 C 35.972656 11.132812 35.898438 11.273438 35.820312 11.410156 C 32.582031 17.023438 29.339844 22.640625 26.101562 28.253906 C 25.671875 29 25.253906 29.746094 24.816406 30.496094 C 24.71875 30.410156 24.625 30.335938 24.566406 30.234375 C 21.222656 24.449219 17.886719 18.667969 14.546875 12.878906 C 14.183594 12.246094 13.828125 11.605469 13.46875 10.96875 C 13.886719 10.960938 14.300781 10.949219 14.71875 10.949219 C 16.464844 10.945312 18.214844 10.953125 19.964844 10.941406 C 20.261719 10.941406 20.488281 11.003906 20.644531 11.304688 C 21.28125 12.441406 21.898438 13.550781 22.527344 14.65625 C 23.195312 15.824219 23.875 16.984375 24.542969 18.164062 C 24.523438 18.21875 24.511719 18.257812 24.484375 18.292969 C 24.410156 18.230469 24.335938 18.183594 24.296875 18.117188 C 24.128906 17.839844 23.976562 17.554688 23.816406 17.277344 C 23.355469 16.464844 22.894531 15.65625 22.433594 14.84375 C 22.066406 14.195312 21.710938 13.539062 21.339844 12.890625 C 21.089844 12.460938 20.773438 12.066406 20.5625 11.617188 C 20.386719 11.242188 20.152344 11.140625 19.765625 11.144531 C 17.839844 11.15625 15.914062 11.144531 13.988281 11.144531 C 13.929688 11.140625 13.867188 11.160156 13.773438 11.175781 C 13.828125 11.289062 13.859375 11.371094 13.90625 11.449219 C 15.15625 13.628906 16.410156 15.8125 17.664062 17.992188 C 18.898438 20.128906 20.132812 22.257812 21.367188 24.394531 C 22.417969 26.210938 23.460938 28.03125 24.515625 29.847656 C 24.578125 29.957031 24.679688 30.042969 24.765625 30.136719 C 24.847656 30.035156 24.949219 29.945312 25.011719 29.835938 C 25.445312 29.09375 25.867188 28.347656 26.296875 27.605469 C 27.007812 26.371094 27.722656 25.140625 28.433594 23.90625 C 29.097656 22.757812 29.75 21.609375 30.410156 20.460938 C 31.308594 18.910156 32.207031 17.363281 33.105469 15.8125 C 33.828125 14.566406 34.546875 13.316406 35.269531 12.066406 C 35.4375 11.777344 35.597656 11.480469 35.78125 11.148438 C 35.535156 11.148438 35.347656 11.148438 35.160156 11.148438 C 33.34375 11.148438 31.527344 11.15625 29.710938 11.144531 C 29.414062 11.144531 29.203125 11.226562 29.050781 11.492188 C 28.628906 12.230469 28.199219 12.960938 27.765625 13.691406 C 27.632812 13.917969 27.480469 14.136719 27.347656 14.367188 C 27.128906 14.757812 26.925781 15.15625 26.707031 15.546875 C 26.4375 16.023438 26.160156 16.496094 25.882812 16.96875 C 25.664062 17.351562 25.457031 17.738281 25.21875 18.109375 C 25.089844 18.308594 24.914062 18.472656 24.722656 18.695312 C 24.632812 18.539062 24.566406 18.417969 24.515625 18.300781 C 24.554688 18.300781 24.578125 18.300781 24.613281 18.308594 C 24.71875 18.289062 24.851562 18.292969 24.890625 18.234375 C 25.042969 18 25.164062 17.746094 25.300781 17.5 Z M 25.300781 17.5 "/>
<path style=" stroke:none;fill-rule:nonzero;fill:rgb(14.117647%,20.784314%,27.843137%);fill-opacity:1;" d="M 25.289062 17.484375 C 25.164062 17.746094 25.042969 18 24.890625 18.234375 C 24.851562 18.292969 24.71875 18.289062 24.613281 18.292969 C 24.578125 18.230469 24.566406 18.1875 24.550781 18.148438 C 23.875 16.984375 23.195312 15.824219 22.527344 14.65625 C 21.898438 13.550781 21.28125 12.441406 20.65625 11.316406 C 20.773438 11.140625 20.929688 11.144531 21.09375 11.226562 C 21.488281 11.414062 21.800781 11.695312 22.027344 12.066406 C 22.769531 13.308594 23.503906 14.554688 24.25 15.796875 C 24.585938 16.359375 24.9375 16.910156 25.289062 17.484375 Z M 25.289062 17.484375 "/>
<path style=" stroke:none;fill-rule:nonzero;fill:rgb(25.490196%,73.72549%,51.764706%);fill-opacity:1;" d="M 13.449219 10.964844 C 13.828125 11.605469 14.183594 12.246094 14.546875 12.878906 C 17.886719 18.667969 21.222656 24.449219 24.566406 30.234375 C 24.625 30.335938 24.71875 30.410156 24.835938 30.496094 C 24.898438 30.496094 24.925781 30.5 24.949219 30.5 C 24.796875 30.753906 24.671875 30.757812 24.527344 30.511719 C 23.613281 28.914062 22.699219 27.316406 21.78125 25.722656 C 20.730469 23.886719 19.679688 22.054688 18.621094 20.222656 C 17.617188 18.484375 16.601562 16.753906 15.597656 15.015625 C 14.898438 13.804688 14.199219 12.59375 13.511719 11.375 C 13.359375 11.105469 13.171875 10.992188 12.855469 10.992188 C 10.730469 11.003906 8.609375 10.996094 6.484375 11.003906 C 6.332031 11.003906 6.175781 11.054688 6.007812 11.09375 C 5.996094 11.050781 5.980469 10.972656 6.007812 10.953125 C 6.050781 10.925781 6.121094 10.9375 6.179688 10.9375 C 8.523438 10.9375 10.867188 10.9375 13.210938 10.941406 C 13.285156 10.941406 13.359375 10.953125 13.449219 10.964844 Z M 13.449219 10.964844 "/>
<path style=" stroke:none;fill-rule:nonzero;fill:rgb(25.490196%,73.72549%,51.764706%);fill-opacity:1;" d="M 24.960938 30.488281 C 24.925781 30.5 24.898438 30.496094 24.851562 30.496094 C 25.253906 29.746094 25.671875 29 26.101562 28.253906 C 29.339844 22.640625 32.582031 17.023438 35.820312 11.410156 C 35.898438 11.273438 35.972656 11.132812 36.054688 10.976562 C 36.09375 10.957031 36.128906 10.953125 36.183594 10.949219 C 36.132812 11.113281 36.078125 11.28125 35.992188 11.429688 C 35.191406 12.824219 34.386719 14.214844 33.582031 15.605469 C 32.46875 17.53125 31.347656 19.449219 30.238281 21.375 C 29.390625 22.839844 28.5625 24.3125 27.71875 25.777344 C 27.003906 27.015625 26.28125 28.25 25.558594 29.488281 C 25.367188 29.820312 25.167969 30.144531 24.960938 30.488281 Z M 24.960938 30.488281 "/>
<path style=" stroke:none;fill-rule:nonzero;fill:rgb(15.294118%,22.352941%,29.411765%);fill-opacity:1;" d="M 30.925781 10.925781 C 30.609375 10.9375 30.28125 10.941406 29.933594 10.941406 C 30.242188 10.792969 30.578125 10.820312 30.925781 10.925781 Z M 30.925781 10.925781 "/>
<path style=" stroke:none;fill-rule:nonzero;fill:rgb(15.294118%,22.352941%,29.411765%);fill-opacity:1;" d="M 36.03125 10.925781 C 36.003906 10.9375 35.972656 10.941406 35.921875 10.941406 C 35.945312 10.933594 35.984375 10.925781 36.03125 10.925781 Z M 36.03125 10.925781 "/>
<path style=" stroke:none;fill-rule:nonzero;fill:rgb(12.156863%,18.431373%,23.921569%);fill-opacity:1;" d="M 43.378906 11.40625 C 43.996094 11.363281 44.398438 11.828125 44.113281 12.492188 C 43.8125 13.203125 43.457031 13.894531 43.078125 14.566406 C 42.042969 16.40625 40.992188 18.230469 39.941406 20.054688 C 38.777344 22.066406 37.605469 24.074219 36.445312 26.085938 C 34.449219 29.539062 32.464844 33 30.46875 36.453125 C 29.308594 38.457031 28.140625 40.457031 26.96875 42.453125 C 26.746094 42.832031 26.488281 43.191406 26.230469 43.550781 C 26.144531 43.667969 26.027344 43.773438 25.90625 43.855469 C 25.46875 44.136719 25.082031 44 24.890625 43.496094 C 25.367188 42.625 25.847656 41.769531 26.335938 40.917969 C 28.320312 37.472656 30.308594 34.027344 32.296875 30.585938 C 33.957031 27.703125 35.625 24.824219 37.289062 21.945312 C 39.292969 18.472656 41.296875 15 43.300781 11.527344 C 43.324219 11.492188 43.34375 11.457031 43.378906 11.40625 Z M 43.378906 11.40625 "/>
<path style=" stroke:none;fill-rule:nonzero;fill:rgb(20.392157%,28.627451%,36.862745%);fill-opacity:1;" d="M 24.484375 18.292969 C 24.566406 18.417969 24.632812 18.539062 24.722656 18.695312 C 24.914062 18.472656 25.089844 18.308594 25.21875 18.109375 C 25.457031 17.738281 25.664062 17.351562 25.882812 16.96875 C 26.160156 16.496094 26.4375 16.023438 26.707031 15.546875 C 26.925781 15.15625 27.128906 14.757812 27.347656 14.367188 C 27.480469 14.136719 27.632812 13.917969 27.765625 13.691406 C 28.199219 12.960938 28.628906 12.230469 29.050781 11.492188 C 29.203125 11.226562 29.414062 11.144531 29.710938 11.144531 C 31.527344 11.15625 33.34375 11.148438 35.160156 11.148438 C 35.347656 11.148438 35.535156 11.148438 35.78125 11.148438 C 35.597656 11.480469 35.4375 11.777344 35.269531 12.066406 C 34.546875 13.316406 33.828125 14.566406 33.105469 15.8125 C 32.207031 17.363281 31.308594 18.910156 30.410156 20.460938 C 29.75 21.609375 29.097656 22.757812 28.433594 23.90625 C 27.722656 25.140625 27.007812 26.371094 26.296875 27.605469 C 25.867188 28.347656 25.445312 29.09375 25.011719 29.835938 C 24.949219 29.945312 24.847656 30.035156 24.765625 30.136719 C 24.679688 30.042969 24.578125 29.957031 24.515625 29.847656 C 23.460938 28.03125 22.417969 26.210938 21.367188 24.394531 C 20.132812 22.257812 18.898438 20.128906 17.664062 17.992188 C 16.410156 15.8125 15.15625 13.628906 13.90625 11.449219 C 13.859375 11.371094 13.828125 11.289062 13.773438 11.175781 C 13.867188 11.160156 13.929688 11.140625 13.988281 11.144531 C 15.914062 11.144531 17.839844 11.15625 19.765625 11.144531 C 20.152344 11.140625 20.386719 11.242188 20.5625 11.617188 C 20.773438 12.066406 21.089844 12.460938 21.339844 12.890625 C 21.710938 13.539062 22.066406 14.195312 22.433594 14.84375 C 22.894531 15.65625 23.355469 16.464844 23.816406 17.277344 C 23.976562 17.554688 24.128906 17.839844 24.296875 18.117188 C 24.335938 18.183594 24.410156 18.230469 24.484375 18.292969 Z M 24.484375 18.292969 "/>
<path style=" stroke:none;fill-rule:nonzero;fill:rgb(20.392157%,28.627451%,36.862745%);fill-opacity:1;" d="M 24.542969 18.164062 C 24.566406 18.1875 24.578125 18.230469 24.597656 18.285156 C 24.578125 18.300781 24.554688 18.300781 24.515625 18.300781 C 24.511719 18.257812 24.523438 18.21875 24.542969 18.164062 Z M 24.542969 18.164062 "/>
</g>
</svg>
